<svg xmlns="http://www.w3.org/2000/svg" xmlns:xlink="http://www.w3.org/1999/xlink"><symbol fill="none" viewBox="0 0 151 147" id="icon-key" xmlns="http://www.w3.org/2000/svg"><path d="M55.37 120.116v4.526h7.105v3.001h-7.106v4.52h7.106v3.001h-7.106v4.52h15.156v1.487a4.96 4.96 0 1 0 9.92 0V84.736h.12a2.36 2.36 0 0 0 2.362-2.36 2.36 2.36 0 0 0-2.361-2.36h-.122v-3.349h.913a2.726 2.726 0 0 0 2.731-2.725 2.73 2.73 0 0 0-2.73-2.731h-.914v-5.082h3.231c9.051 0 16.385-7.333 16.385-16.381 0-9.045-7.334-16.381-16.385-16.381H80.68a5.872 5.872 0 0 0-10.387 0h-2.996c-9.046 0-16.382 7.336-16.382 16.381s7.334 16.381 16.382 16.381h3.231v5.081h-.91a2.73 2.73 0 0 0-2.731 2.732 2.727 2.727 0 0 0 2.73 2.725h.911v3.348h-.122a2.36 2.36 0 0 0-2.36 2.36 2.36 2.36 0 0 0 2.36 2.361h.122v35.38H55.37ZM69.733 34.92a6.126 6.126 0 0 0-.111.99h-1.336c-8.175 0-14.834 6.656-14.834 14.833 0 3.837 1.47 7.344 3.867 9.977a14.788 14.788 0 0 1-4.856-10.967c0-8.18 6.65-14.833 14.833-14.833h2.437Zm4.983-1.662c0 .715-.585 1.3-1.304 1.3a1.3 1.3 0 0 1-1.3-1.3c0-.725.58-1.31 1.3-1.31.72 0 1.304.588 1.304 1.31Zm.768 8.725a5.862 5.862 0 0 0 4.793-2.487h2.921c5.658 0 10.258 4.6 10.258 10.257 0 5.658-4.6 10.26-10.258 10.26H67.776c-5.656 0-10.26-4.604-10.26-10.26 0-5.655 4.604-10.257 10.26-10.257h2.916a5.87 5.87 0 0 0 4.793 2.487Zm3.014-2.712a.621.621 0 1 1-1.244 0 .62.62 0 0 1 .622-.617c.347 0 .622.275.622.617Zm16.148.505a14.785 14.785 0 0 0-9.976-3.866h-3.324a6.083 6.083 0 0 0-.111-.99h2.44c4.342 0 8.254 1.874 10.971 4.856ZM68.766 62.551a11.786 11.786 0 0 1-8.826-3.972 11.787 11.787 0 0 0 7.836 2.983h15.423c6.508 0 11.803-5.296 11.803-11.809a11.77 11.77 0 0 0-2.977-7.83c2.432 2.164 3.972 5.316 3.972 8.82 0 6.513-5.295 11.808-11.808 11.808H68.766Zm5.163 8.662h-1.604v-5.081h1.604v5.081Zm7.428 1.921H69.615c-.958 0-1.744.366-1.744.808 0-.964.786-1.744 1.744-1.744h11.742c.964 0 1.744.78 1.744 1.744-.002-.442-.783-.808-1.744-.808Zm-7.428 6.884h-1.604V76.67h1.604v3.348Zm6.637 1.738H70.404c-.757 0-1.374.281-1.374.622A1.38 1.38 0 0 1 70.404 81h10.162c.757 0 1.379.621 1.379 1.378 0-.341-.622-.622-1.38-.622Zm-8.241 59.177V84.736h1.604v56.197c0 1.744.701 3.16 1.556 3.16a3.161 3.161 0 0 1-3.16-3.16Zm-8.91-4.83v-4.329h.555v4.885h-7.11v2.085h-.551v-2.641h7.105Zm0-7.521v-4.329h.555v4.88h-7.11v2.085h-.551v-2.636h7.105Zm7.11-7.521v.551H56.862v2.085h-.55v-2.636h14.213ZM58.114 3.335c.931 7.362 1.86 14.725 2.789 22.092 0 1.776 6.526 3.216 14.582 3.216 8.055 0 14.584-1.44 14.584-3.216.932-7.367 1.86-14.73 2.792-22.092-.024-.029-4.872 2.122-5.03 4.274-.075.78.126 1.53.523 2.178-1.537-.127-2.855.884-2.953 2.239-.069.934.434 1.786 1.225 2.286 1.085.599 1.768 1.885 1.61 3.38-.244 2.212-2.576 3.774-5.209 3.61-2.636-.167-4.753-2.006-4.713-4.235.032-1.41.78-3.183 2.525-3.964.95-.429 1.63-1.294 1.688-2.329.085-1.5-1.225-2.8-2.95-2.884.529-.654.86-1.448.894-2.319.135-2.384-4.952-5.428-4.984-5.398-.029-.03-5.112 3.014-4.983 5.398.032.871.365 1.665.895 2.319-1.72.084-3.033 1.384-2.946 2.884.056 1.032.739 1.898 1.689 2.329 1.744.78 2.487 2.549 2.524 3.964.043 2.231-2.074 4.068-4.713 4.235-2.636.164-4.965-1.398-5.208-3.61-.159-1.495.524-2.781 1.609-3.38h-.005c.794-.5 1.3-1.352 1.23-2.286-.098-1.355-1.416-2.366-2.953-2.239a3.589 3.589 0 0 0 .524-2.178c-.167-2.152-5.012-4.3-5.036-4.274Zm18.239 3.922c0 1.056-.87 1.916-.87 1.916s-.871-.86-.871-1.916c0-1.061.87-1.921.87-1.921s.87.86.87 1.921Zm-.868 9.024s.481.471.481 1.056c0 .585-.481 1.061-.481 1.061s-.477-.476-.477-1.06c0-.586.477-1.057.477-1.057Zm15.254-.936a9.318 9.318 0 0 0-.66-.23c.226.018.453.05.684.092-.006.045-.016.092-.024.137Zm-.151.907a10.103 10.103 0 0 0-1.252-.354c.426.013.855.066 1.292.14-.016.069-.027.14-.04.214Zm-.177 1.085a12.961 12.961 0 0 0-1.707-.492.332.332 0 0 0-.01-.071c.584.037 1.177.116 1.767.238-.016.11-.037.217-.05.325Zm-.196 1.197a13.72 13.72 0 0 0-1.532-.52c.01-.079.023-.147.029-.224.524.066 1.05.17 1.574.299l-.071.445Zm-.225 1.354a16.445 16.445 0 0 0-1.72-.664c.053-.098.098-.201.14-.304.561.098 1.117.23 1.672.397-.026.19-.058.38-.092.571Zm-.249 1.549c-.78-.416-1.58-.757-2.39-1.02.093-.09.188-.182.276-.275.738.136 1.487.337 2.225.61-.034.221-.071.452-.11.685Zm-.204 1.328a14.59 14.59 0 0 0-3.654-1.421c.11-.048.22-.093.328-.146a13.61 13.61 0 0 1 3.445.805c-.04.251-.082.508-.119.762Zm-.22 1.421c-1.574-.953-4.043-1.813-5.753-2.08 1.684-.029 4.198.532 5.886 1.225-.045.284-.09.57-.132.855ZM63.355 25.37c0-1.355 5.433-2.456 12.13-2.456 6.704 0 12.143 1.099 12.143 2.456 0 1.355-5.436 2.453-12.142 2.453-6.698 0-12.131-1.098-12.131-2.453Zm-1.773-2.04c1.688-.691 4.202-1.252 5.885-1.226-1.712.268-4.178 1.128-5.756 2.08-.04-.283-.082-.568-.13-.854Zm-.204-1.326c1.14-.426 2.3-.693 3.445-.805.109.053.22.098.328.146a14.55 14.55 0 0 0-3.654 1.421c-.04-.254-.082-.51-.12-.762Zm-.201-1.255a13.442 13.442 0 0 1 2.23-.608c.085.093.178.188.273.275-.81.262-1.609.603-2.39 1.019-.04-.23-.076-.46-.113-.686Zm-.23-1.428a14.7 14.7 0 0 1 1.672-.398c.042.104.09.207.14.305-.58.188-1.154.407-1.72.664-.032-.193-.058-.384-.093-.571Zm-.202-1.231c.53-.13 1.05-.233 1.575-.3.01.075.018.146.032.226-.514.14-1.03.312-1.533.518-.02-.148-.05-.299-.074-.444Zm-.177-1.075a12.812 12.812 0 0 1 1.768-.238c-.005.024-.005.048-.01.072-.573.121-1.136.286-1.703.492l-.055-.326Zm-.159-.976c.429-.074.86-.127 1.286-.14-.415.09-.836.209-1.252.354-.01-.074-.023-.145-.034-.214Zm-.116-.694a1.484 1.484 0 0 1-.024-.134c.23-.043.458-.075.688-.093a9.829 9.829 0 0 0-.664.227Z" fill="#D1A773"/><path d="M41.825 77.244c-7.49-1.08-16.445-2.829-22.434-4.3C9.536 70.755 4.39 66.187 2.04 62.165c-2.403-4.02-2-7.513-2.03-7.423A259.027 259.027 0 0 0 25.88 66.47c.135.855.43 1.95 1.056 3.09 1.22 2.332 4.16 5.111 9.961 6.138a258.856 258.856 0 0 0 17.152 2.633c.01-.127.018-.254.032-.384-3.166-.434-11.375-1.678-16.347-2.768-5.148-.958-7.844-3.409-9.054-5.666-1.244-2.25-1-4.31-1.01-4.263a247.852 247.852 0 0 0 26.884 9.77c.03-.108.053-.214.08-.317-2.52-.789-8.471-2.692-15.103-5.301-8.826-3.38-18.859-8.003-24.347-10.882C6.09 54.05 2.206 48.054.978 43.235c-1.295-4.83.066-8.476.018-8.392a257.165 257.165 0 0 0 25.257 19.645c-.09.934-.07 2.16.252 3.496.622 2.73 2.834 6.3 8.275 8.6a258.013 258.013 0 0 0 19.957 7.728c.032-.122.071-.243.108-.365-3.678-1.329-14.322-5.417-19.107-7.752-4.848-2.098-6.912-5.282-7.54-7.952-.664-2.67.117-4.82.099-4.777a244.71 244.71 0 0 0 27.636 17.641c.042-.092.09-.19.135-.285-2.683-1.52-9.514-5.434-16.778-10.435-9.435-6.33-19.584-14.46-24.22-18.615-7.794-6.563-9.977-13.711-9.795-19.073.122-5.386 2.61-8.985 2.538-8.916a248.808 248.808 0 0 0 22.048 28.063 12.12 12.12 0 0 0-.72 3.745c-.13 2.995 1.122 7.203 5.917 10.691a253.82 253.82 0 0 0 21.195 14.174c.056-.116.117-.23.183-.341-3.85-2.403-15.78-10.345-19.904-13.804-4.207-3.112-5.404-6.83-5.293-9.733.07-2.909 1.453-4.997 1.427-4.955a236.174 236.174 0 0 0 26.36 26.68c.787.645 2.192 1.907 3.637 2.614a11.317 11.317 0 0 0-5.494 9.71c0 6.253 5.068 11.32 11.319 11.32v7.12a20.227 20.227 0 0 1-8.765-5.277c-.95.87-2.538 2.329-3.996 3.61-15.098 13.819-22.953 8.264-22.701 8.227a259.57 259.57 0 0 0 12.814-6.976c.592.257 1.434.5 2.514.524 2.183.098 5.695-.908 10.101-4.856.323-.28.64-.566.964-.85-.07-.074-.14-.153-.215-.232-.23.2-.505.434-.83.712-7.734 6.875-12.188 3.31-12.071 3.25 3.75-2.007 7.439-4.113 11.065-6.315-.093-.14-.183-.286-.276-.431-1.654.976-5.343 3.117-11.242 6.203-17.961 9.736-24.749 1.664-24.487 1.664a259.77 259.77 0 0 0 17.363-4.72 7.194 7.194 0 0 0 2.408 1.225c2.165.69 5.88.635 11.065-2.194a220.94 220.94 0 0 0 4.674-2.538c-.043-.072-.09-.146-.13-.215-.805.43-2.149 1.151-4.319 2.263-9.075 4.914-12.832.042-12.698-.005a239.15 239.15 0 0 0 15.736-4.867c-.071-.172-.135-.347-.201-.519a256.166 256.166 0 0 1-19.47 5.582c-9.746 2.538-16.108 1.323-19.787-.636-3.6-1.873-4.684-4.45-4.735-4.533a258.46 258.46 0 0 0 21.397-.762 7.775 7.775 0 0 0 2.13 1.916c1.996 1.286 5.69 2.202 11.361.617 3.007-.805 5.994-1.66 8.966-2.57-.037-.117-.08-.233-.116-.352a248.383 248.383 0 0 1-8.588 2.323c-10.27 2.856-13.107-3.43-12.957-3.453a250.01 250.01 0 0 0 20.836-1.744c-.019-.109-.037-.207-.053-.31-4.068.445-17.321 1.652-27.629 1.538-10.07.177-16.043-2.758-19.208-5.814-3.21-3.033-3.61-6.19-3.617-6.098a260.618 260.618 0 0 0 24.41 4.8c.313.74.837 1.66 1.678 2.55 1.683 1.847 5.113 3.72 10.996 3.434 4.446-.164 8.881-.444 13.309-.841-.019-.117-.032-.233-.048-.35-2.41.173-7.862.525-12.644.61-10.575.507-12.02-6.778-11.856-6.776a248.049 248.049 0 0 0 24.378 3.234c.006-.121.011-.248.014-.367-2.154-.218-6.794-.686-12.203-1.504ZM109.147 77.244c7.484-1.08 16.44-2.829 22.434-4.3 9.855-2.189 15.002-6.757 17.347-10.779 2.403-4.02 2.006-7.513 2.035-7.423a259.485 259.485 0 0 1-25.871 11.729 9.631 9.631 0 0 1-1.056 3.09c-1.22 2.332-4.16 5.111-9.966 6.138a258.224 258.224 0 0 1-17.146 2.633c-.011-.127-.02-.254-.032-.384 3.165-.434 11.369-1.678 16.347-2.768 5.142-.958 7.838-3.409 9.05-5.666 1.244-2.25 1.006-4.31 1.014-4.263a247.885 247.885 0 0 1-26.885 9.77c-.03-.108-.05-.214-.08-.317 2.52-.789 8.467-2.692 15.101-5.301 8.831-3.38 18.864-8.003 24.35-10.882 9.093-4.47 12.978-10.467 14.206-15.286 1.294-4.83-.069-8.476-.019-8.392a257.135 257.135 0 0 1-25.257 19.645c.084.934.071 2.16-.252 3.496-.621 2.73-2.834 6.3-8.275 8.6a258.783 258.783 0 0 1-19.957 7.728l-.108-.365c3.673-1.329 14.32-5.417 19.107-7.752 4.848-2.098 6.913-5.282 7.54-7.952.664-2.67-.122-4.82-.098-4.777a245.216 245.216 0 0 1-27.637 17.641c-.047-.092-.087-.19-.135-.286 2.678-1.519 9.514-5.433 16.773-10.434 9.435-6.33 19.584-14.46 24.226-18.615 7.788-6.563 9.977-13.711 9.789-19.073-.117-5.386-2.61-8.985-2.538-8.916a248.834 248.834 0 0 1-22.048 28.063c.355.971.683 2.268.726 3.745.127 2.995-1.123 7.203-5.923 10.691a254.678 254.678 0 0 1-21.19 14.174c-.06-.116-.122-.23-.183-.341 3.848-2.403 15.781-10.345 19.904-13.804 4.208-3.112 5.404-6.83 5.288-9.733-.072-2.909-1.453-4.997-1.421-4.955A235.76 235.76 0 0 1 91.94 68.302c-.78.646-2.188 1.908-3.636 2.615 3.292 1.982 5.497 5.586 5.497 9.71 0 6.253-5.068 11.32-11.322 11.32v7.12a20.212 20.212 0 0 0 8.765-5.277c.948.87 2.538 2.329 4.002 3.61 15.1 13.819 22.952 8.264 22.701 8.227a259.116 259.116 0 0 1-12.814-6.976c-.598.257-1.44.5-2.514.524-2.189.098-5.695-.908-10.107-4.856-.323-.28-.64-.566-.963-.85.074-.074.145-.153.214-.232.233.2.51.434.831.712 7.733 6.875 12.192 3.31 12.07 3.25A239.238 239.238 0 0 1 93.6 90.883c.098-.14.188-.286.28-.431 1.651.976 5.343 3.117 11.239 6.203 17.964 9.736 24.752 1.664 24.488 1.664a259.762 259.762 0 0 1-17.358-4.72 7.282 7.282 0 0 1-2.414 1.225c-2.164.69-5.875.635-11.059-2.194a208.999 208.999 0 0 1-4.674-2.538l.13-.215c.8.429 2.149 1.151 4.319 2.263 9.069 4.914 12.827.042 12.698-.005a237.973 237.973 0 0 1-15.736-4.867l.196-.519c2.739.908 10.088 3.287 19.469 5.582 9.747 2.538 16.115 1.323 19.793-.636 3.599-1.873 4.684-4.45 4.735-4.533a258.473 258.473 0 0 1-21.397-.762 7.854 7.854 0 0 1-2.133 1.916c-2.001 1.286-5.69 2.202-11.364.617a264.344 264.344 0 0 1-8.966-2.57c.043-.117.085-.233.122-.352 1.53.445 4.478 1.286 8.588 2.323 10.265 2.856 13.102-3.43 12.954-3.453a249.783 249.783 0 0 1-20.83-1.744c.019-.109.032-.207.05-.31 4.063.445 17.321 1.652 27.629 1.538 10.07.177 16.043-2.758 19.208-5.814 3.207-3.033 3.609-6.19 3.617-6.098a260.979 260.979 0 0 1-24.416 4.8 8.591 8.591 0 0 1-1.672 2.55c-1.689 1.847-5.118 3.72-10.999 3.434-4.44-.164-8.881-.444-13.303-.841.013-.117.029-.233.042-.35 2.416.173 7.863.525 12.65.61 10.57.507 12.02-6.778 11.856-6.776a248.157 248.157 0 0 1-24.379 3.234c-.005-.121-.01-.248-.013-.367 2.146-.218 6.788-.686 12.197-1.504ZM95.346 24.906a.19.19 0 0 0 .178-.111l3.678-7.217a.202.202 0 0 0-.09-.273.197.197 0 0 0-.267.09l-3.679 7.223c-.053.092-.013.214.09.267.032.01.058.021.09.021ZM101.2 28.492c.061 0 .122-.03.164-.085l4.764-6.555a.206.206 0 0 0-.048-.28.2.2 0 0 0-.28.047l-4.764 6.555a.2.2 0 0 0 .048.28.233.233 0 0 0 .116.038ZM106.421 32.951a.214.214 0 0 0 .141-.06l5.732-5.727a.212.212 0 0 0 0-.286.212.212 0 0 0-.286 0l-5.732 5.732a.194.194 0 0 0 0 .28c.042.037.095.061.145.061ZM110.878 38.167c.042 0 .085-.01.117-.037l6.557-4.763a.194.194 0 0 0 .043-.276.197.197 0 0 0-.276-.047l-6.557 4.763a.2.2 0 0 0 .116.36ZM40.092 38.167c.06 0 .122-.029.164-.08a.196.196 0 0 0-.048-.28l-6.555-4.763a.2.2 0 0 0-.28.047c-.067.09-.043.21.047.276l6.555 4.763c.037.03.08.037.117.037ZM44.55 32.951c.051 0 .104-.024.141-.06a.195.195 0 0 0 0-.281l-5.727-5.732a.212.212 0 0 0-.286 0 .201.201 0 0 0 0 .285l5.733 5.727c.037.037.09.061.14.061ZM49.77 28.492a.226.226 0 0 0 .121-.037.2.2 0 0 0 .043-.28l-4.764-6.556a.2.2 0 0 0-.275-.047.2.2 0 0 0-.048.28l4.764 6.555c.04.056.098.085.159.085ZM55.626 24.906c.03 0 .06-.01.09-.024a.205.205 0 0 0 .09-.272l-3.678-7.217a.203.203 0 0 0-.27-.09.21.21 0 0 0-.09.272l3.683 7.217c.03.072.1.114.175.114ZM93.131 21.288c.08 0 .154-.047.183-.127l1.294-3.128a.196.196 0 0 0-.109-.257.2.2 0 0 0-.262.11l-1.294 3.122c-.042.103.01.22.111.262.027.008.05.018.077.018ZM99.578 24.57a.197.197 0 0 0 .17-.093l1.767-2.884a.197.197 0 0 0-.066-.276c-.093-.06-.214-.029-.275.067l-1.763 2.884a.195.195 0 0 0 .167.302ZM105.432 28.823a.21.21 0 0 0 .153-.07l2.194-2.571a.198.198 0 0 0-.024-.286c-.079-.072-.206-.056-.28.024l-2.197 2.574a.202.202 0 0 0 .024.281c.035.03.082.048.13.048ZM110.545 33.938a.183.183 0 0 0 .129-.047l2.573-2.197a.202.202 0 0 0 .024-.28.2.2 0 0 0-.281-.024l-2.57 2.196a.207.207 0 0 0-.023.286.197.197 0 0 0 .148.066ZM114.8 39.79c.037 0 .074-.011.103-.03l2.885-1.767a.198.198 0 0 0 .066-.276.197.197 0 0 0-.27-.066L114.7 39.42a.2.2 0 0 0-.067.275.188.188 0 0 0 .167.095ZM36.17 39.79a.195.195 0 0 0 .172-.093.201.201 0 0 0-.066-.275l-2.885-1.768a.201.201 0 0 0-.275.066.201.201 0 0 0 .066.275l2.884 1.768a.222.222 0 0 0 .104.027ZM40.425 33.938a.205.205 0 0 0 .154-.071.198.198 0 0 0-.024-.28l-2.57-2.197a.198.198 0 0 0-.28.024.195.195 0 0 0 .018.28l2.575 2.197a.18.18 0 0 0 .127.047ZM45.538 28.823a.2.2 0 0 0 .13-.048.196.196 0 0 0 .023-.28l-2.19-2.575a.212.212 0 0 0-.287-.024.207.207 0 0 0-.023.286l2.196 2.572c.04.045.1.069.151.069ZM51.395 24.57c.031 0 .071-.01.103-.03a.199.199 0 0 0 .066-.274l-1.768-2.885a.198.198 0 0 0-.275-.066.204.204 0 0 0-.066.275l1.767 2.885c.043.06.104.095.172.095ZM57.841 21.288c.024 0 .053-.01.074-.018a.2.2 0 0 0 .109-.262l-1.292-3.123a.207.207 0 0 0-.267-.109.202.202 0 0 0-.109.257l1.295 3.128a.221.221 0 0 0 .19.127ZM92.253 13.362a.628.628 0 0 0 .407.794.63.63 0 0 0 .794-.407.63.63 0 0 0-.407-.794.636.636 0 0 0-.794.407ZM100.438 16.644a.634.634 0 0 0 .275.85.633.633 0 0 0 .85-.276.633.633 0 0 0-.276-.85.635.635 0 0 0-.849.276ZM49.404 116.803a.638.638 0 0 0 .275.849.63.63 0 1 0-.275-.849ZM108.012 21.17a.624.624 0 0 0 .14.878.634.634 0 0 0 .884-.135.639.639 0 0 0-.14-.884.636.636 0 0 0-.884.14ZM41.939 112.108a.634.634 0 0 0 .14.884c.28.207.678.146.879-.14a.628.628 0 0 0-.135-.879.634.634 0 0 0-.884.135ZM114.782 26.822a.638.638 0 0 0 0 .895.629.629 0 0 0 .894 0 .629.629 0 0 0 0-.895.629.629 0 0 0-.894 0ZM120.588 33.465a.623.623 0 0 0-.14.878.623.623 0 0 0 .878.14.623.623 0 0 0 .14-.878.623.623 0 0 0-.878-.14ZM30.387 33.465a.633.633 0 0 0-.884.134.63.63 0 0 0 .14.885.633.633 0 0 0 .744-1.019ZM36.188 26.822a.63.63 0 0 0-.894 0 .634.634 0 0 0 0 .895.63.63 0 0 0 .894 0 .63.63 0 0 0 0-.895ZM109.036 112.108a.635.635 0 0 0-.884-.135.625.625 0 0 0-.14.879.628.628 0 0 0 .884.14.64.64 0 0 0 .14-.884ZM42.958 21.167a.631.631 0 0 0-1.02.749c.207.28.599.341.88.134a.629.629 0 0 0 .14-.883ZM101.565 116.803a.63.63 0 1 0-1.123.572.63.63 0 0 0 1.123-.572ZM50.529 16.644a.632.632 0 0 0-.85-.275.636.636 0 0 0-.275.85.64.64 0 0 0 .85.274.625.625 0 0 0 .275-.85ZM93.454 120.272a.634.634 0 0 0-.794-.407.631.631 0 1 0 .794.407ZM58.717 13.362a.634.634 0 0 0-.794-.407.632.632 0 0 0 .392 1.201.629.629 0 0 0 .402-.794ZM84.898 122.427a.622.622 0 0 0-.72-.524.627.627 0 0 0-.523.719.63.63 0 1 0 1.243-.195ZM96.407 14.844a.632.632 0 1 0 .828-.347.644.644 0 0 0-.828.347ZM53.395 118.695a.637.637 0 0 0 .336.829.64.64 0 0 0 .826-.342.633.633 0 0 0-.342-.826.626.626 0 0 0-.82.339ZM104.315 18.758a.632.632 0 0 0 1.074.662.629.629 0 0 0-.206-.865.625.625 0 0 0-.868.203ZM45.58 114.606a.631.631 0 1 0 1.075.662.637.637 0 0 0-.207-.871.63.63 0 0 0-.868.209ZM111.508 23.863a.625.625 0 0 0 .071.89c.268.23.664.195.889-.072a.627.627 0 0 0-.068-.89.64.64 0 0 0-.892.072ZM38.501 109.34a.63.63 0 0 0 .072.889.636.636 0 0 0 .894-.071.634.634 0 0 0-.071-.889.64.64 0 0 0-.895.071ZM117.814 30.03a.632.632 0 1 0 .821.96.632.632 0 0 0-.821-.96Z" fill="#D1A773"/><path d="M123.078 37.106a.632.632 0 0 0-.209.87.641.641 0 0 0 .871.21.635.635 0 0 0-.662-1.08ZM27.892 37.106a.629.629 0 0 0-.866.206c-.183.3-.09.689.207.874a.643.643 0 0 0 .87-.21.635.635 0 0 0-.212-.87ZM33.155 30.03a.63.63 0 1 0-.818.958c.268.23.665.195.895-.067a.638.638 0 0 0-.077-.892ZM112.466 109.34a.63.63 0 0 0-.889-.069.628.628 0 0 0-.072.889.636.636 0 0 0 .89.075.633.633 0 0 0 .071-.895ZM39.464 23.863a.636.636 0 0 0-.894-.069.632.632 0 1 0 .823.961.636.636 0 0 0 .071-.892ZM105.389 114.606a.632.632 0 0 0-1.074.662.637.637 0 0 0 .871.209.638.638 0 0 0 .203-.871ZM46.655 18.758a.63.63 0 0 0-.866-.209.633.633 0 0 0 .662 1.08.635.635 0 0 0 .204-.87ZM97.577 118.695a.627.627 0 0 0-.823-.341.636.636 0 0 0-.347.823.641.641 0 0 0 .829.347.634.634 0 0 0 .341-.829ZM54.56 14.844a.632.632 0 0 0-.824-.346.633.633 0 0 0 .482 1.17.63.63 0 0 0 .341-.824ZM89.22 121.514a.633.633 0 0 0-.757-.469.634.634 0 0 0-.468.762.63.63 0 1 0 1.225-.293Z" fill="#D1A773"/></symbol><symbol fill="none" viewBox="0 0 901 81" id="icon-logo" xmlns="http://www.w3.org/2000/svg"><path d="M98.226 78.59H73.03V3.133h25.196v75.455ZM8 16.633l31.356 52.795-4.64 7.714-.08.08L8 32.383V78.59H0V3.134l7.999 13.5Zm55.032-2.17 8-12.053v76.178h-8V29.973l-7.439 12.295-14.158 23.705-4.64-7.875L4.08 3.134h28.236l18.638 31.34 12.078-20.01ZM151.74.482c5.066 0 9.812 1.045 14.238 3.134a36.379 36.379 0 0 1 11.678 8.598c3.36 3.59 5.999 7.822 7.919 12.697 1.92 4.875 2.879 10.071 2.879 15.589 0 5.518-.959 10.714-2.879 15.59-1.92 4.874-4.559 9.133-7.919 12.776-3.306 3.59-7.199 6.429-11.678 8.518-4.426 2.09-9.172 3.134-14.238 3.134-5.066 0-9.839-1.045-14.318-3.134-4.48-2.09-8.373-4.929-11.679-8.518-3.306-3.643-5.919-7.902-7.839-12.777-1.919-4.875-2.879-10.071-2.879-15.589 0-5.518.96-10.714 2.879-15.59 1.92-4.874 4.533-9.106 7.839-12.696a36.372 36.372 0 0 1 11.679-8.598c4.479-2.09 9.252-3.134 14.318-3.134Zm0 72.402c4.106 0 7.945-.83 11.518-2.491a29.757 29.757 0 0 0 9.439-6.991c2.719-2.947 4.852-6.375 6.399-10.286 1.546-3.91 2.319-8.116 2.319-12.616s-.773-8.705-2.319-12.616c-1.547-3.91-3.68-7.34-6.399-10.286a28.742 28.742 0 0 0-9.439-6.91c-3.573-1.715-7.412-2.572-11.518-2.572-4.107 0-7.973.857-11.599 2.572-3.573 1.66-6.719 3.964-9.439 6.91-2.666 2.947-4.772 6.375-6.319 10.286-1.546 3.91-2.319 8.116-2.319 12.616s.773 8.705 2.319 12.616c1.547 3.91 3.653 7.34 6.319 10.286a30.986 30.986 0 0 0 9.439 6.99c3.626 1.662 7.492 2.492 11.599 2.492Zm0-3.857c-3.413 0-6.613-.75-9.599-2.25-2.986-1.5-5.599-3.536-7.839-6.107-2.24-2.572-3.999-5.572-5.279-9-1.28-3.483-1.92-7.206-1.92-11.17 0-3.91.64-7.607 1.92-11.09 1.28-3.481 3.039-6.508 5.279-9.08 2.24-2.571 4.853-4.607 7.839-6.107 2.986-1.5 6.186-2.25 9.599-2.25v57.054ZM287.001 2.813v54.883l-7.918-13.258V2.812h7.918Zm-17.197 75.374L224.85 2.814h6.959l44.954 75.374h-6.959ZM221.73 5.224l6.88 11.17 36.874 61.794h-9.118L228.61 31.58v46.608h-6.88V5.222Zm56.633 72.965L233.409 2.811h5.839l44.954 75.376h-5.839ZM240.848 2.811h5.199l40.954 68.706v6.67h-1.199L240.848 2.811Zm46.153 56.813v8.679L247.967 2.812h5.119l33.915 56.813ZM336.995 78.188h-8.079V2.811h8.079v75.376Zm11.279 0h-7.999V2.811h7.999v75.376Zm5.839 0h-4.64V2.811h4.64v75.376Zm5.839 0h-4.639V2.811h4.639v75.376Zm5.679 0h-4.719V2.811h4.719v75.376Zm19.357-68.465h-17.437v-6.91h17.437v6.91Zm0 32.223h-17.437v-6.91h17.437v6.91Zm0 36.242h-17.437v-7.393h17.437v7.392ZM448.9 43.875v34.313h-7.999V45.481l-17.837-42.67h8.639L448.9 43.876Zm25.757-16.634 12.878-24.428h8.639l-17.758 33.589-3.759-9.16ZM450.82 2.813l15.198 36.803v38.572h-4.799V40.42L445.701 2.812h5.119Zm6.079 0 14.718 35.758v39.617h-4.479V39.455L452.1 2.813h4.799Zm-12.398 0 15.518 37.767v37.608h-7.599l.16-35.599-16.558-39.776h8.479Zm33.035 34.392v40.983h-4.799V38.33L458.099 2.813h5.279l14.158 34.392ZM542.808 78.188h-8.159V2.811h8.159v75.376Zm27.676 0h-25.356V2.811h25.356v75.376Zm19.357-68.465h-17.437v-6.91h17.437v6.91Zm0 32.223h-17.437v-6.91h17.437v6.91ZM644.874 78.188h-8.079V2.811h8.079v75.376Zm11.279 0h-7.999V2.811h7.999v75.376Zm5.839 0h-4.639V2.811h4.639v75.376Zm5.839 0h-4.639V2.811h4.639v75.376Zm5.679 0h-4.719V2.811h4.719v75.376Zm19.358-68.465H675.43v-6.91h17.438v6.91Zm0 32.223H675.43v-6.91h17.438v6.91Zm0 36.242H675.43v-7.393h17.438v7.392ZM765.098 0c4.853 0 9.226 1.152 13.118 3.455 3.947 2.304 7.119 5.357 9.519 9.161l-6.079 3.777c-1.706-2.786-4.026-5.01-6.959-6.67-2.88-1.714-6.079-2.571-9.599-2.571-2.719 0-5.279.535-7.679 1.607a19.62 19.62 0 0 0-6.159 4.178c-1.76 1.768-3.173 3.858-4.239 6.268-1.013 2.358-1.52 4.902-1.52 7.634 0 2.25.347 4.366 1.04 6.349a24.059 24.059 0 0 0 2.959 5.544l.08-.08 3.92 3.937 11.038 11.01 3.52 3.535a9.55 9.55 0 0 1 1.52 1.366c.426.429.853.91 1.279 1.446l.24.161-.08.08a13.651 13.651 0 0 1 1.76 3.536c.48 1.286.72 2.652.72 4.098 0 1.822-.347 3.536-1.04 5.143-.693 1.607-1.653 3-2.879 4.179-1.174 1.178-2.56 2.116-4.16 2.812-1.6.697-3.306 1.045-5.119 1.045-1.76 0-3.52-.16-5.279-.482-1.76-.322-3.467-.938-5.12-1.848-1.653-.965-3.252-2.304-4.799-4.018-1.493-1.715-2.88-3.938-4.159-6.67l5.919-2.893a22.944 22.944 0 0 0 1.84 3.295 19.255 19.255 0 0 0 2.559 2.973c.96.91 2.053 1.66 3.28 2.25 1.226.59 2.613.857 4.159.804a6.839 6.839 0 0 0 2.96-.643c.96-.429 1.759-.964 2.399-1.607a7.302 7.302 0 0 0 1.6-2.411c.427-.91.64-1.902.64-2.973 0-.268-.053-.51-.16-.723a15.782 15.782 0 0 1-.16-.724l-6.239-6.187-3.919-3.938-8.159-8.035a32.13 32.13 0 0 0-1.36-1.286 31.872 31.872 0 0 0-1.28-1.366l-.56-.643v-.08c-1.866-2.304-3.359-4.902-4.479-7.795-1.067-2.893-1.6-5.946-1.6-9.16 0-3.697.693-7.18 2.08-10.447 1.439-3.268 3.359-6.107 5.759-8.518 2.4-2.464 5.226-4.393 8.479-5.786C757.953.696 761.419 0 765.098 0Zm23.597 37.125a58.292 58.292 0 0 1 2.64 2.491 12.724 12.724 0 0 1 2.319 2.973c1.92 3.161 2.88 6.75 2.88 10.768 0 2.357-.347 4.58-1.04 6.67-.64 2.09-1.493 3.99-2.56 5.705a58.228 58.228 0 0 1-2.239 3.214 33.568 33.568 0 0 1-2.48 3.134c-2.133 2.25-4.426 4.018-6.879 5.304-2.453 1.286-4.933 2.09-7.439 2.41 1.546-2.356 2.56-5.035 3.04-8.035.16-1.125.24-2.25.24-3.375 0-3.643-.827-6.857-2.48-9.643-1.653-2.84-3.653-5.196-5.999-7.071-.8-.643-1.707-1.474-2.72-2.491l-3.119-3.134a186.149 186.149 0 0 0-3.12-3.215c-1.013-1.071-1.893-1.928-2.64-2.571-.693-.59-1.359-1.152-1.999-1.688a19.65 19.65 0 0 1-1.68-1.928 15.452 15.452 0 0 1-2.24-4.26 15.724 15.724 0 0 1-.8-4.981c0-2.09.48-4.125 1.44-6.107.96-2.036 2.16-3.777 3.6-5.224 1.493-1.5 3.119-2.651 4.879-3.455 1.813-.803 3.546-1.045 5.199-.723l23.197 25.232ZM870.124 78.188h-6.799V2.811h6.799v75.376Zm5.759 0h-4.319V2.811h4.319v75.376Zm5.76 0h-3.36V2.811h3.36v75.376Zm5.679 0h-3.6V2.811h3.6v75.376ZM901 10.285h-11.278V2.813H901v7.473Zm-61.751-7.473v7.473h12.398v67.901h7.999V2.814h-20.397Z" fill="#EFC18E"/></symbol><symbol fill="none" viewBox="0 0 157 145" id="icon-sword" xmlns="http://www.w3.org/2000/svg"><path d="m52.932 20.31.88 2.34 2.496.113-1.953 1.56.663 2.408-2.086-1.375-2.087 1.375.663-2.409-1.953-1.559 2.496-.114.881-2.34ZM41.879 25.866l1.29 3.428 3.658.166-2.862 2.286.972 3.533-3.058-2.016-3.058 2.016.97-3.533-2.86-2.286 3.658-.166 1.29-3.428ZM39.523 41.126l.88 2.339 2.495.114-1.952 1.56.662 2.408-2.085-1.375-2.088 1.375.664-2.409-1.952-1.56 2.495-.113.88-2.339ZM104.224 20.31l-.88 2.34-2.496.113 1.952 1.56-.662 2.408 2.086-1.375 2.086 1.375-.663-2.409 1.952-1.559-2.496-.114-.879-2.34ZM115.277 25.866l-1.29 3.428-3.658.166 2.861 2.286-.971 3.533 3.058-2.016 3.058 2.016-.972-3.533 2.863-2.286-3.659-.166-1.29-3.428ZM117.633 41.126l-.879 2.339-2.496.114 1.952 1.56-.662 2.408 2.085-1.375 2.086 1.375-.662-2.409 1.952-1.56-2.496-.113-.88-2.339ZM90.124 12.17a4.635 4.635 0 1 1-6.148-2.017L77.904 0l-6.072 10.153a4.635 4.635 0 1 1-6.148 2.017l-8.957-3.778 6.929 14.247 7.215 2.072 7.323-5.484 7.163 5.362 6.794-1.95L99.08 8.39l-8.956 3.779Zm-12.22-.065-2.206-3.82 2.206-3.82 2.206 3.82-2.206 3.82ZM65.909 61.953l-7.115 11.912c2.147.787 4.52 1.275 7.115 1.459V61.953ZM65.91 94.256c-.457.493-.97.98-1.54 1.461a24.027 24.027 0 0 1-3.4 2.38l-9.276 15.53-10.507 5.976 13.015-21.807c-2.184.977-3.951 1.35-4.06 1.371l-4.993 1.024 1.913-4.724c.002-.007.113-.279.273-.724-.393.182-.829.346-1.302.494L38.9 107.18l-.326 16.821 14.62-8.323 12.715-21.29v-.133ZM70.799 58.848l-2.24-1.333-.795 1.333h3.035ZM97.467 73.879l-7.262-12.163v13.621h.02c2.645-.174 5.06-.661 7.242-1.458ZM88.49 58.848l-.795-1.333-2.24 1.333h3.035ZM110.213 95.222a10.63 10.63 0 0 1-1.255-.48c.161.446.271.72.274.725l1.912 4.724-4.992-1.023c-.111-.023-1.905-.399-4.114-1.395l13.028 21.83-10.506-5.976-9.295-15.564a23.982 23.982 0 0 1-3.343-2.346 17.182 17.182 0 0 1-1.719-1.659v.093l12.856 21.526 14.621 8.324-.327-16.821-7.14-11.958Z" fill="#D1A773"/><path d="M64.745 83.422c-.173 1.456-.489 2.853-.878 4.215a36.372 36.372 0 0 1-1.737 4.746l-.379-.131a35.588 35.588 0 0 0 .69-4.87c.098-1.415.106-2.829-.032-4.186a36.67 36.67 0 0 1-2.554-.415c-.249.62-.517 1.228-.805 1.821a37.445 37.445 0 0 1-1.609 2.967 46.176 46.176 0 0 1-1.821 2.802c-.64.909-1.3 1.794-2.008 2.652l-.326-.233c.553-.938 1.061-1.91 1.538-2.888.476-.979.919-1.973 1.32-2.978.612-1.532 1.136-3.096 1.502-4.663-.848-.23-1.69-.494-2.52-.797a28.868 28.868 0 0 1-1.113-.433c-1.447 1.706-3.036 3.238-4.692 4.668a57.346 57.346 0 0 1-2.906 2.337c-.993.744-2 1.46-3.046 2.13l-.236-.324a49.128 49.128 0 0 0 2.676-2.504 55.493 55.493 0 0 0 2.494-2.667c1.29-1.479 2.495-3.024 3.543-4.636a27.54 27.54 0 0 1-3.088-1.847c-2.297 1.405-4.69 2.567-7.127 3.583a68.89 68.89 0 0 1-3.901 1.48 58.968 58.968 0 0 1-3.976 1.227l-.124-.38a58.295 58.295 0 0 0 3.744-1.7 67.406 67.406 0 0 0 3.62-1.925c2.013-1.156 3.96-2.416 5.769-3.81a26.881 26.881 0 0 1-2.455-2.332c-3.13.919-6.307 1.545-9.49 1.994a85.99 85.99 0 0 1-5.308.575 75.59 75.59 0 0 1-5.322.24l-.018-.401a75.077 75.077 0 0 0 5.222-.755 86.56 86.56 0 0 0 5.154-1.081c2.769-.674 5.498-1.489 8.126-2.499a30.004 30.004 0 0 1-1.717-2.458c-3.53.252-7.035.145-10.502-.164a86.77 86.77 0 0 1-5.3-.645 75.292 75.292 0 0 1-5.238-.977l.073-.395c1.743.22 3.503.357 5.258.452 1.756.092 3.513.133 5.265.119 3.073-.03 6.14-.225 9.137-.679a32.417 32.417 0 0 1-1.123-2.397c-3.768-.726-7.423-1.805-10.987-3.079a98.206 98.206 0 0 1-5.564-2.193 84.744 84.744 0 0 1-5.404-2.531l.17-.362a85.178 85.178 0 0 0 5.56 2.03 96.315 96.315 0 0 0 5.666 1.674c3.168.828 6.375 1.492 9.588 1.897a36.038 36.038 0 0 1-.608-2c-.038-.136-.072-.273-.108-.41-3.615-1.309-7.065-2.942-10.396-4.754a99.471 99.471 0 0 1-5.213-3.053 86.124 86.124 0 0 1-5.002-3.366l.225-.331a84.665 84.665 0 0 0 5.234 2.894 97.527 97.527 0 0 0 5.393 2.557c2.999 1.307 6.058 2.46 9.164 3.365a31.75 31.75 0 0 1-.274-1.81v-.004a47.531 47.531 0 0 1-4.564-3.466 71.802 71.802 0 0 1-4.696-4.405 95.2 95.2 0 0 1-4.311-4.721 90.886 90.886 0 0 1-3.978-4.978l.141-.114a90.724 90.724 0 0 0 4.468 4.491 93.188 93.188 0 0 0 4.736 4.172 69.757 69.757 0 0 0 5.007 3.766c1.718 1.166 3.489 2.237 5.311 3.127l.603.295.147.9.024.287.033.314a29.85 29.85 0 0 0 .295 1.923c.16.857.357 1.71.585 2.555a33.243 33.243 0 0 0 1.753 4.934c1.424 3.18 3.383 6.11 5.864 8.505 2.473 2.403 5.464 4.241 8.718 5.433 3.104 1.145 6.426 1.72 9.782 1.878v-2.61c-22.916-1.51-23.773-24.255-23.773-24.255s-9.832-5.365-18.442-14.46c-4.617-4.876-6.368-7.778-14.25-18.145 0 0-2.004 10.687 1.893 16.42 1.333 1.961 6.513 7.571 6.513 7.571s-5.181-2.848-8.008-4.767c-3.218-2.186-7.758-6.984-7.758-6.984s.213 9.289 4.578 13.199c3.764 3.372 10.354 6.81 10.354 6.81s-2.386-.448-5.717-1.882C7.847 50.1 0 46.18 0 46.18s.852 8.79 6.974 11.99c4.894 2.558 13.706 5.135 13.706 5.135s-4.815-.207-7.116-.603c-2.444-.421-9.763-1.749-9.763-1.749s3.454 6.532 9.287 8.77c5.582 2.141 14.576 2.234 14.576 2.234s-3.852.855-7.324 1.293c-5.26.665-8.408 1.425-8.7 1.425 0 0 2.81 4.99 11.03 5.593 6.846.5 14.056-.764 14.056-.764l-5.932 3.29-6.787 3.764s5.107 2.289 9.518 1.607c2.222-.344 8.064-1.607 8.064-1.607s-1.568 2.693-2.062 3.335c-.996 1.296-3 3.5-3 3.5s7.047.364 10.011-1.3c1.583-.889 5.63-4.338 5.63-4.338s-.743 2.53-1.273 4.684c-.53 2.152-1.303 4.06-1.303 4.06s3.428-.702 6.426-2.848c2.142-1.533 3.85-5.275 3.85-5.275l-.543 7.518s6.562-3.465 6.562-7.638V83.49c-.38-.021-.76-.04-1.142-.067ZM135.613 63.296s8.812-2.576 13.706-5.134c6.123-3.201 6.974-11.99 6.974-11.99s-7.847 3.92-11.277 5.396c-3.331 1.434-5.717 1.884-5.717 1.884s6.59-3.44 10.354-6.812c4.365-3.91 4.578-13.198 4.578-13.198s-4.54 4.798-7.759 6.983c-2.826 1.92-8.007 4.768-8.007 4.768s5.18-5.61 6.512-7.571c3.897-5.734 1.893-16.42 1.893-16.42-7.881 10.367-9.632 13.269-14.249 18.145-8.608 9.094-18.442 14.46-18.442 14.46s-.857 22.745-23.773 24.255v2.622c3.449-.14 6.867-.714 10.055-1.89 3.255-1.191 6.245-3.03 8.718-5.432 2.481-2.395 4.44-5.325 5.865-8.505a33.275 33.275 0 0 0 1.753-4.934 33.182 33.182 0 0 0 .798-3.84c.03-.213.058-.427.081-.638l.033-.314.024-.287.147-.9.603-.295c1.823-.89 3.593-1.96 5.311-3.127a69.74 69.74 0 0 0 5.007-3.766 93.82 93.82 0 0 0 4.736-4.172 90.165 90.165 0 0 0 4.468-4.491l.141.114a90.368 90.368 0 0 1-3.978 4.977 95.143 95.143 0 0 1-4.311 4.722 72.032 72.032 0 0 1-4.696 4.405c-1.444 1.228-2.953 2.4-4.564 3.465v.005a32.243 32.243 0 0 1-.274 1.81c3.106-.903 6.166-2.058 9.164-3.365a98.449 98.449 0 0 0 5.393-2.557 85.717 85.717 0 0 0 5.234-2.894l.224.331a85.769 85.769 0 0 1-5.001 3.366 99.842 99.842 0 0 1-5.213 3.053c-3.333 1.812-6.781 3.445-10.396 4.753a35.954 35.954 0 0 1-.716 2.41c3.213-.404 6.42-1.069 9.587-1.896a96.872 96.872 0 0 0 5.666-1.674 83.675 83.675 0 0 0 5.56-2.03l.171.362a84.775 84.775 0 0 1-5.404 2.531 98.815 98.815 0 0 1-5.564 2.193c-3.564 1.274-7.219 2.353-10.987 3.078a33.614 33.614 0 0 1-1.123 2.398c2.998.454 6.064.65 9.137.678a85.681 85.681 0 0 0 5.264-.118 73.896 73.896 0 0 0 5.258-.452l.073.395a74.962 74.962 0 0 1-5.238.976 86.795 86.795 0 0 1-5.3.646c-3.467.31-6.973.416-10.503.164a30.201 30.201 0 0 1-1.717 2.458c2.629 1.01 5.358 1.825 8.127 2.499 1.702.412 3.423.771 5.153 1.08 1.731.307 3.476.574 5.223.756l-.018.4a74.902 74.902 0 0 1-5.322-.239 86.946 86.946 0 0 1-5.308-.575c-3.184-.45-6.361-1.075-9.49-1.994-.351.377-.713.746-1.085 1.104-.442.425-.901.834-1.37 1.228 1.808 1.395 3.755 2.654 5.769 3.81a67.276 67.276 0 0 0 3.619 1.925 58.253 58.253 0 0 0 3.745 1.699l-.124.381a59.67 59.67 0 0 1-3.976-1.227 67.419 67.419 0 0 1-3.901-1.48c-2.437-1.016-4.831-2.178-7.127-3.584a26.967 26.967 0 0 1-3.088 1.847c1.048 1.613 2.253 3.159 3.543 4.637a54.603 54.603 0 0 0 2.494 2.667 49.519 49.519 0 0 0 2.675 2.504l-.235.324a50.021 50.021 0 0 1-3.046-2.13 56.086 56.086 0 0 1-2.906-2.337c-1.656-1.43-3.245-2.962-4.693-4.668a28.71 28.71 0 0 1-1.112.433c-.83.303-1.672.567-2.52.797.366 1.567.89 3.13 1.502 4.663a45.14 45.14 0 0 0 1.32 2.978c.478.978.985 1.951 1.537 2.888l-.325.233a42.27 42.27 0 0 1-2.008-2.652 46.13 46.13 0 0 1-1.82-2.802 37.838 37.838 0 0 1-1.61-2.967 29.575 29.575 0 0 1-.804-1.822c-.847.17-1.7.307-2.554.415-.139 1.358-.129 2.773-.032 4.187a35.502 35.502 0 0 0 .69 4.87l-.38.13a36.544 36.544 0 0 1-1.737-4.746c-.388-1.36-.702-2.759-.877-4.214-.472.033-.944.056-1.416.073v4.753c0 4.173 6.562 7.639 6.562 7.639l-.543-7.519s1.708 3.742 3.85 5.275c2.998 2.147 6.426 2.85 6.426 2.85s-.773-1.91-1.303-4.062a130.534 130.534 0 0 0-1.273-4.684s4.047 3.45 5.629 4.338c2.965 1.664 10.013 1.301 10.013 1.301s-2.005-2.205-3.001-3.5c-.493-.643-2.062-3.335-2.062-3.335s5.842 1.263 8.063 1.606c4.411.682 9.519-1.606 9.519-1.606l-6.787-3.764a40918.5 40918.5 0 0 0-5.933-3.29s7.211 1.264 14.057.763c8.221-.602 11.032-5.593 11.032-5.593-.293 0-3.441-.76-8.701-1.424-3.472-.44-7.324-1.294-7.324-1.294s8.994-.09 14.576-2.234c5.833-2.239 9.287-8.77 9.287-8.77s-7.319 1.328-9.763 1.75c-2.301.402-7.116.608-7.116.608Z" fill="#D1A773"/><path fill-rule="evenodd" clip-rule="evenodd" d="m97.712 50.153-2.046 2.966H86.71v-1.943h-4.075V33.278l4.44-3.99-8.88-6.647-8.879 6.647 4.44 3.99v17.898H69.68v1.943h-8.955l-2.046-2.966h-3.17v11.353h2.658l2.046-2.658h8.591v69.038l9.391 16.519 9.391-16.519V58.848h8.592l2.045 2.658h2.66V50.153h-3.17ZM78.195 26.731v23.933h2.864V30.976l1.535-1.28-4.399-2.965Zm20.866 32.117V53.35l-1.448 1.817-12.667.931 12.48 1.113 1.635 1.637ZM57.535 53.35v5.498l1.637-1.637 12.478-1.113-12.667-.93-1.448-1.818Zm27.411 5.498H70.863l7.333 5.931v73.846l6.75-11.864V58.848Z" fill="#D1A773"/></symbol><symbol fill="none" viewBox="0 0 27 22" id="icon-telegram" xmlns="http://www.w3.org/2000/svg"><path opacity=".5" d="M26.354 1.987c.343-1.6-.571-2.228-1.6-1.828L2.022 8.9c-1.542.628-1.485 1.485-.229 1.885l5.77 1.77L21.042 4.1c.628-.457 1.256-.17.742.229l-10.91 9.825-.4 5.997c.629 0 .857-.228 1.2-.571l2.8-2.742 5.882 4.341c1.086.629 1.885.286 2.171-.97l3.827-18.222Z" fill="#D1A773"/></symbol><symbol fill="none" viewBox="0 0 28 17" id="icon-vk" xmlns="http://www.w3.org/2000/svg"><path opacity=".5" d="M27.117 1.557c.154-.617 0-1.13-.926-1.13h-3.033c-.771 0-1.131.41-1.337.873 0 0-1.542 3.753-3.702 6.221-.72.669-1.028.926-1.439.926-.154 0-.463-.257-.463-.874V1.557c0-.77-.205-1.13-.874-1.13h-4.73c-.514 0-.77.36-.77.719 0 .72 1.079.874 1.182 2.93V8.55c0 .977-.155 1.183-.566 1.183-1.028 0-3.496-3.805-4.987-8.123C5.164.786 4.855.426 4.084.426H1.05C.228.426.022.838.022 1.3c0 .823 1.029 4.782 4.782 10.077 2.519 3.6 6.066 5.501 9.254 5.501 1.902 0 2.16-.411 2.16-1.13 0-3.445-.155-3.805.77-3.805.463 0 1.234.257 3.034 2.005 2.056 2.056 2.416 2.93 3.547 2.93h3.034c.874 0 1.285-.411 1.028-1.285-.566-1.748-4.422-5.45-4.627-5.707-.463-.565-.309-.822 0-1.337 0 0 3.701-5.244 4.113-6.992Z" fill="#D1A773"/></symbol><symbol fill="none" viewBox="0 0 28 19" id="icon-youtube" xmlns="http://www.w3.org/2000/svg"><path opacity=".5" d="M26.437 3.037c-.288-1.151-1.203-2.063-2.31-2.35C22.059.11 13.878.11 13.878.11S5.648.11 3.58.686c-1.107.288-2.021 1.2-2.31 2.351C.692 5.053.692 9.371.692 9.371s0 4.271.577 6.335c.289 1.151 1.203 2.015 2.31 2.303 2.07.528 10.298.528 10.298.528s8.181 0 10.25-.528c1.107-.288 2.022-1.152 2.31-2.303.578-2.064.578-6.335.578-6.335s0-4.318-.578-6.334ZM11.182 13.258V5.485l6.834 3.886-6.834 3.887Z" fill="#D1A773"/></symbol></svg>