<svg width="151" height="147" viewBox="0 0 151 147" fill="none" xmlns="http://www.w3.org/2000/svg">
<path d="M55.3694 120.116V124.642H62.475V127.643H55.3694V132.163H62.475V135.164H55.3694V139.684H70.5254V141.171C70.5254 143.916 72.7458 146.136 75.4848 146.136C78.2292 146.136 80.4442 143.916 80.4442 141.171V84.7363H80.5659C81.8706 84.7363 82.9265 83.6804 82.9265 82.3757C82.9265 81.071 81.8706 80.0151 80.5659 80.0151H80.4442V76.6674H81.3573C82.8684 76.6674 84.0883 75.4473 84.0883 73.9415C84.0883 72.4357 82.8684 71.2105 81.3573 71.2105H80.4442V66.1294H83.6755C92.7262 66.1294 100.06 58.7961 100.06 49.748C100.06 40.7025 92.7262 33.3667 83.6755 33.3667H80.6798C79.6927 31.5062 77.7396 30.2359 75.4848 30.2359C73.2327 30.2359 71.277 31.5062 70.2925 33.3667H67.2968C58.2513 33.3667 50.9154 40.7025 50.9154 49.748C50.9154 58.7934 58.2487 66.1294 67.2968 66.1294H70.5281V71.2105H69.6177C68.1066 71.2105 66.8866 72.4357 66.8866 73.9415C66.8866 75.4473 68.1066 76.6674 69.6177 76.6674H70.5281V80.0151H70.4064C69.1017 80.0151 68.0457 81.071 68.0457 82.3757C68.0457 83.6804 69.1017 84.7363 70.4064 84.7363H70.5281V120.116H55.3694ZM69.7342 34.9201C69.668 35.2429 69.6363 35.5737 69.623 35.9098H68.2866C60.1118 35.9098 53.4534 42.5656 53.4534 50.743C53.4534 54.5803 54.9222 58.0868 57.3198 60.72C54.3373 58.0074 52.4636 54.0961 52.4636 49.7533C52.4636 41.5732 59.1141 34.9201 67.2968 34.9201H69.7342ZM74.7174 33.2581C74.7174 33.9726 74.1325 34.5575 73.4127 34.5575C72.6928 34.5575 72.1133 33.9726 72.1133 33.2581C72.1133 32.533 72.6928 31.9481 73.4127 31.9481C74.1325 31.9481 74.7174 32.5356 74.7174 33.2581ZM75.4848 41.9834C77.467 41.9834 79.2163 40.9963 80.2775 39.4957H83.1992C88.8572 39.4957 93.4566 44.0952 93.4566 49.7533C93.4566 55.4113 88.8572 60.0135 83.1992 60.0135H67.7758C62.1204 60.0135 57.5157 55.4087 57.5157 49.7533C57.5157 44.0979 62.1204 39.4957 67.7758 39.4957H70.6921C71.7586 40.9963 73.5026 41.9834 75.4848 41.9834ZM78.4991 39.2708C78.4991 39.6122 78.2238 39.8927 77.8771 39.8927C77.5357 39.8927 77.2553 39.6122 77.2553 39.2708C77.2553 38.9294 77.5357 38.6542 77.8771 38.6542C78.2238 38.6542 78.4991 38.9294 78.4991 39.2708ZM94.6475 39.7763C92.0117 37.3786 88.5106 35.9098 84.6706 35.9098H81.3467C81.3361 35.5737 81.2991 35.2403 81.2355 34.9201H83.6755C88.0182 34.9201 91.9297 36.7938 94.6475 39.7763ZM68.7656 62.5514C65.2591 62.5514 62.1045 61.0138 59.9397 58.5791C62.0304 60.429 64.7694 61.5616 67.7758 61.5616H83.1992C89.7067 61.5616 95.0021 56.2661 95.0021 49.7533C95.0021 46.7522 93.8747 44.0079 92.0249 41.9225C94.4569 44.0873 95.9972 47.2392 95.9972 50.743C95.9972 57.2559 90.7017 62.5514 84.1889 62.5514H68.7656ZM73.9287 71.2131H72.325V66.132H73.9287V71.2131ZM81.3573 73.1344H69.6151C68.6571 73.1344 67.8711 73.4996 67.8711 73.9415C67.8711 72.9782 68.6571 72.1976 69.6151 72.1976H81.3573C82.3206 72.1976 83.1012 72.9782 83.1012 73.9415C83.0986 73.4996 82.3179 73.1344 81.3573 73.1344ZM73.9287 80.0178H72.325V76.67H73.9287V80.0178ZM80.5659 81.7564H70.4037C69.6468 81.7564 69.0302 82.037 69.0302 82.3784C69.0302 81.6215 69.6468 80.9996 70.4037 80.9996H80.5659C81.3228 80.9996 81.9447 81.6215 81.9447 82.3784C81.9447 82.037 81.3228 81.7564 80.5659 81.7564ZM72.325 140.933V84.7363H73.9287V140.933C73.9287 142.677 74.63 144.093 75.4848 144.093C73.7408 144.093 72.325 142.677 72.325 140.933ZM63.4145 136.103V131.774H63.9702V136.659H56.8593V138.744H56.3089V136.103H63.4145ZM63.4145 128.582V124.253H63.9702V129.133H56.8593V131.218H56.3089V128.582H63.4145ZM70.5254 121.061V121.612H56.8619V123.697H56.3115V121.061H70.5254Z" fill="#D1A773"/>
<path d="M58.1137 3.33509C59.0453 10.6974 59.9741 18.0598 60.903 25.4274C60.903 27.2032 67.4291 28.6428 75.4848 28.6428C83.5405 28.6428 90.0693 27.2032 90.0693 25.4274C91.0008 18.0598 91.9296 10.6974 92.8612 3.33509C92.8374 3.30598 87.9892 5.4575 87.8304 7.60904C87.7563 8.38973 87.9574 9.13866 88.3544 9.78704C86.8168 9.66001 85.4989 10.6709 85.4009 12.0259C85.3321 12.9601 85.8349 13.8123 86.6262 14.3124C87.7112 14.9105 88.394 16.1967 88.2353 17.6919C87.9918 19.9043 85.6602 21.4657 83.0271 21.3016C80.3912 21.1349 78.2742 19.2956 78.3139 17.0673C78.3456 15.6568 79.0946 13.8837 80.8386 13.103C81.7887 12.6743 82.4688 11.8089 82.527 10.7741C82.6117 9.27363 81.3017 7.97426 79.5762 7.88957C80.1055 7.23591 80.4363 6.44198 80.4707 5.57131C80.6057 3.18688 75.5192 0.14346 75.4875 0.172571C75.4584 0.14346 70.3746 3.18688 70.5042 5.57131C70.536 6.44198 70.8695 7.23591 71.3988 7.88957C69.6786 7.97426 68.3659 9.27363 68.4533 10.7741C68.5088 11.8063 69.1916 12.6716 70.1417 13.103C71.8857 13.8837 72.6294 15.6515 72.6664 17.0673C72.7087 19.2983 70.5916 21.1349 67.9531 21.3016C65.3173 21.4657 62.9884 19.9043 62.745 17.6919C62.5862 16.1967 63.2689 14.9105 64.354 14.3124H64.3487C65.1426 13.8123 65.6481 12.9601 65.5793 12.0259C65.4814 10.6709 64.1634 9.66001 62.6258 9.78704C63.0175 9.13602 63.2186 8.38973 63.1498 7.60904C62.9831 5.4575 58.1376 3.30863 58.1137 3.33509ZM76.3529 7.25704C76.3529 8.31297 75.4822 9.17305 75.4822 9.17305C75.4822 9.17305 74.6115 8.31297 74.6115 7.25704C74.6115 6.19583 75.4822 5.33574 75.4822 5.33574C75.4822 5.33574 76.3529 6.19583 76.3529 7.25704ZM75.4848 16.2814C75.4848 16.2814 75.9665 16.7524 75.9665 17.3373C75.9665 17.9221 75.4848 18.3985 75.4848 18.3985C75.4848 18.3985 75.0085 17.9221 75.0085 17.3373C75.0085 16.7524 75.4848 16.2814 75.4848 16.2814ZM90.7388 15.3445C90.5191 15.2598 90.2995 15.1805 90.0799 15.1143C90.3048 15.1328 90.5324 15.1646 90.7627 15.2069C90.7574 15.2519 90.7467 15.2995 90.7388 15.3445ZM90.588 16.2522C90.1725 16.1067 89.7517 15.985 89.3362 15.8976C89.7623 15.9109 90.191 15.9638 90.6276 16.0379C90.6117 16.1067 90.6012 16.1781 90.588 16.2522ZM90.4107 17.3373C89.839 17.1309 89.2753 16.9668 88.7037 16.845C88.7037 16.8212 88.6984 16.7974 88.6931 16.7736C89.2779 16.8107 89.8708 16.89 90.4609 17.0118C90.4451 17.1229 90.4239 17.2288 90.4107 17.3373ZM90.2148 18.5335C89.704 18.327 89.1959 18.155 88.6825 18.0148C88.6931 17.9354 88.7064 17.8666 88.7117 17.7898C89.2357 17.856 89.7622 17.9592 90.2862 18.0889C90.2624 18.2344 90.2386 18.3853 90.2148 18.5335ZM89.9898 19.8884C89.4235 19.6317 88.8492 19.4121 88.2696 19.2242C88.3226 19.1263 88.3676 19.023 88.41 18.9198C88.971 19.0178 89.5267 19.1501 90.0825 19.3168C90.056 19.5073 90.0242 19.6979 89.9898 19.8884ZM89.7411 21.4366C88.9604 21.0211 88.1612 20.6797 87.3514 20.4177C87.444 20.3277 87.5393 20.2351 87.6266 20.1425C88.365 20.2775 89.1138 20.4786 89.8522 20.7511C89.8178 20.9734 89.7807 21.2037 89.7411 21.4366ZM89.5373 22.7651C88.3596 22.1194 87.129 21.6377 85.8826 21.3439C85.9937 21.2963 86.1023 21.2514 86.2108 21.1984C87.3567 21.3096 88.5158 21.5769 89.6564 22.003C89.6167 22.2544 89.5743 22.511 89.5373 22.7651ZM89.3176 24.1863C87.743 23.2335 85.2739 22.3734 83.5643 22.1061C85.2475 22.077 87.7615 22.638 89.4499 23.3314C89.4049 23.6146 89.3599 23.9004 89.3176 24.1863ZM63.3536 25.3692C63.3536 24.0142 68.7867 22.9133 75.4848 22.9133C82.1882 22.9133 87.6266 24.0116 87.6266 25.3692C87.6266 26.7242 82.1908 27.8224 75.4848 27.8224C68.7867 27.8224 63.3536 26.7242 63.3536 25.3692ZM61.5805 23.3288C63.2689 22.638 65.783 22.077 67.4661 22.1035C65.7539 22.3708 63.2875 23.2309 61.7102 24.1836C61.6705 23.9004 61.6282 23.6146 61.5805 23.3288ZM61.3767 22.003C62.5173 21.5769 63.6765 21.3096 64.8224 21.1984C64.9309 21.2514 65.042 21.2963 65.1505 21.3439C63.9014 21.6377 62.6735 22.1194 61.4958 22.7651C61.4561 22.511 61.4138 22.2544 61.3767 22.003ZM61.1756 20.7485C61.9193 20.4759 62.6629 20.2748 63.4066 20.1399C63.4913 20.2325 63.5838 20.3278 63.6791 20.4151C62.8693 20.6771 62.0701 21.0184 61.2894 21.4339C61.2498 21.2037 61.2127 20.9734 61.1756 20.7485ZM60.9454 19.3195C61.5011 19.1527 62.0621 19.0204 62.6179 18.9225C62.6602 19.0257 62.7079 19.1289 62.7582 19.2268C62.1786 19.4147 61.6043 19.6344 61.038 19.8911C61.0062 19.6979 60.9798 19.5073 60.9454 19.3195ZM60.7443 18.0889C61.2736 17.9592 61.7949 17.856 62.3189 17.7898C62.3295 17.8639 62.3374 17.9354 62.3506 18.0148C61.8372 18.155 61.3212 18.327 60.8184 18.5335C60.7972 18.3853 60.7681 18.2344 60.7443 18.0889ZM60.5669 17.0144C61.1597 16.8927 61.7499 16.8133 62.3348 16.7763C62.3295 16.8001 62.3295 16.8239 62.3242 16.8477C61.7525 16.9694 61.1889 17.1335 60.6225 17.3399C60.604 17.2288 60.5854 17.1229 60.5669 17.0144ZM60.4082 16.0379C60.8369 15.9638 61.2682 15.9109 61.6943 15.8976C61.2788 15.9876 60.858 16.1067 60.4425 16.2522C60.432 16.1781 60.4188 16.1067 60.4082 16.0379ZM60.2917 15.3445C60.2812 15.2969 60.2732 15.2519 60.2679 15.2095C60.4981 15.1672 60.7258 15.1355 60.956 15.117C60.7311 15.1831 60.5114 15.2625 60.2917 15.3445Z" fill="#D1A773"/>
<path d="M41.8251 77.2443C34.3357 76.1646 25.3802 74.4153 19.3914 72.9439C9.53611 70.7553 4.38881 66.1875 2.03879 62.165C-0.364162 58.1451 0.0381142 54.6518 0.00900358 54.7418C8.44579 59.1349 17.0811 63.0542 25.8804 66.4707C26.0154 67.3255 26.3091 68.4212 26.9363 69.5618C28.1563 71.8932 31.0965 74.672 36.8974 75.6988C42.5925 76.7679 48.3141 77.6492 54.0489 78.332C54.0595 78.2049 54.0674 78.0779 54.0806 77.9482C50.9155 77.5142 42.7064 76.2704 37.7337 75.1801C32.5865 74.2221 29.8897 71.7715 28.6803 69.5141C27.4365 67.2646 27.68 65.2031 27.6694 65.2507C36.4582 69.0325 45.4321 72.2902 54.5543 75.0213C54.5835 74.9128 54.6073 74.8069 54.6338 74.7037C52.1144 73.9151 46.1625 72.0123 39.5306 69.4029C30.7048 66.0235 20.6722 61.4002 15.1835 58.5209C6.09044 54.0511 2.20551 48.0543 0.97757 43.2352C-0.316529 38.4055 1.04375 34.7586 0.996113 34.8433C9.04123 41.9437 17.4806 48.5042 26.2535 54.4878C26.1636 55.4219 26.1821 56.6472 26.5049 57.9837C27.1268 60.7148 29.3393 64.2848 34.7803 66.5845C41.3355 69.44 47.9913 72.0176 54.737 74.3121C54.7688 74.1903 54.8084 74.0686 54.8455 73.9468C51.167 72.6183 40.5231 68.5297 35.7383 66.1955C30.8901 64.0969 28.8259 60.9132 28.1987 58.243C27.5344 55.5728 28.3151 53.4239 28.2966 53.4662C37.1303 59.979 46.369 65.8673 55.9331 71.1072C55.9755 71.0146 56.0231 70.9167 56.0681 70.8215C53.3846 69.3024 46.5542 65.3883 39.2898 60.3866C29.8553 54.0563 19.7063 45.9266 15.0698 41.7717C7.27605 35.2086 5.09275 28.0606 5.27535 22.6989C5.39709 17.3135 7.88475 13.7143 7.8133 13.7831C14.5299 23.7205 21.9029 33.0941 29.8606 41.8458C29.5087 42.817 29.1831 44.1138 29.1408 45.5905C29.0111 48.5862 30.2629 52.794 35.0582 56.282C41.8965 61.3684 48.9704 66.1002 56.2534 70.4562C56.309 70.3398 56.3698 70.226 56.436 70.1148C52.5854 67.7119 40.6554 59.77 36.5323 56.3111C32.3245 53.1989 31.1283 49.4807 31.2394 46.5776C31.3082 43.6692 32.6923 41.5811 32.6658 41.6235C40.7665 51.2432 49.5897 60.159 59.0268 68.3021C59.8128 68.9478 61.2181 70.2101 62.663 70.9167C59.3709 72.8989 57.169 76.5033 57.169 80.6264C57.169 86.8799 62.2369 91.9478 68.4878 91.9478V99.0667C65.1162 98.0796 62.1125 96.2323 59.7228 93.7897C58.7727 94.6604 57.1849 96.1186 55.7268 97.3994C40.6289 111.219 32.7743 105.664 33.0257 105.627C37.3632 103.42 41.6372 101.096 45.8397 98.6512C46.4325 98.9079 47.2741 99.1514 48.3538 99.1752C50.5371 99.2731 54.0489 98.2674 58.4552 94.319C58.778 94.0384 59.0956 93.7526 59.4185 93.4695C59.3497 93.3954 59.2782 93.316 59.2041 93.2366C58.9739 93.4378 58.6987 93.6706 58.3732 93.9485C50.6403 100.824 46.1864 97.2592 46.3028 97.1983C50.0528 95.1923 53.7419 93.0857 57.3675 90.8839C57.2749 90.7437 57.1849 90.5981 57.0923 90.4526C55.4383 91.4291 51.7492 93.5701 45.8503 96.6558C27.889 106.392 21.101 98.3204 21.363 98.3204C27.2115 96.9469 33.0019 95.3696 38.7262 93.5992C39.2687 94.0252 40.0626 94.5069 41.1344 94.8245C43.2991 95.5152 47.0147 95.4596 52.1991 92.6306C53.7657 91.8023 55.3271 90.958 56.8726 90.0926C56.8303 90.0212 56.7826 89.9471 56.7429 89.8783C55.9384 90.3071 54.5941 91.0295 52.424 92.141C43.3494 97.0554 39.5915 92.1833 39.7264 92.1357C45.0272 90.696 50.2778 89.0685 55.4621 87.2689C55.3907 87.0969 55.3271 86.9223 55.261 86.7502C52.5272 87.658 45.1781 90.0371 35.7912 92.3316C26.0445 94.8695 19.6825 93.6547 16.004 91.6964C12.4048 89.8227 11.3198 87.2451 11.2695 87.1631C18.4228 87.2054 25.5602 86.9487 32.6658 86.4009C33.1157 86.9937 33.8011 87.7056 34.7962 88.3169C36.7916 89.6031 40.486 90.5187 46.1573 88.9335C49.1636 88.129 52.1514 87.2742 55.1234 86.3639C55.0863 86.2474 55.0439 86.131 55.0069 86.0119C53.4746 86.4565 50.5291 87.298 46.4193 88.3354C36.1485 91.1909 33.3115 84.9057 33.4624 84.8819C40.4383 84.5908 47.3878 84.0085 54.2976 83.1378C54.2791 83.0293 54.2606 82.9314 54.2447 82.8282C50.1772 83.2728 36.9239 84.4796 26.6161 84.3658C16.5465 84.5431 10.5735 81.6083 7.40839 78.5516C4.19828 75.5188 3.79869 72.3616 3.79075 72.4543C11.8676 74.447 20.016 76.0481 28.2013 77.2549C28.5136 77.9932 29.0376 78.9142 29.8791 79.8034C31.5622 81.6506 34.992 83.5243 40.875 83.2384C45.321 83.0744 49.7564 82.7939 54.1839 82.3969C54.1653 82.2804 54.1521 82.164 54.1363 82.0475C51.7254 82.2196 46.2737 82.5716 41.4916 82.6562C30.9166 83.1644 29.4716 75.8787 29.6357 75.8814C37.7178 77.3634 45.8529 78.4431 54.0145 79.1153C54.0198 78.9936 54.0251 78.8666 54.0277 78.7475C51.8735 78.5305 47.2344 78.0621 41.8251 77.2443Z" fill="#D1A773"/>
<path d="M109.147 77.2443C116.631 76.1646 125.587 74.4153 131.581 72.9439C141.436 70.7553 146.583 66.1875 148.928 62.165C151.331 58.145 150.934 54.6518 150.963 54.7418C142.527 59.1349 133.886 63.0542 125.092 66.4707C124.957 67.3255 124.658 68.4211 124.036 69.5618C122.816 71.8932 119.876 74.672 114.07 75.6988C108.38 76.7679 102.658 77.6492 96.9235 78.332C96.9129 78.2049 96.9049 78.0779 96.8917 77.9482C100.057 77.5142 108.261 76.2704 113.239 75.1801C118.381 74.2221 121.077 71.7715 122.289 69.5141C123.533 67.2646 123.295 65.2031 123.303 65.2507C114.514 69.0325 105.54 72.2902 96.418 75.0213C96.3889 74.9128 96.3677 74.8069 96.3386 74.7037C98.858 73.9151 104.805 72.0123 111.439 69.4029C120.27 66.0235 130.303 61.4002 135.789 58.5209C144.882 54.0511 148.767 48.0543 149.995 43.2352C151.289 38.4054 149.926 34.7586 149.976 34.8433C141.931 41.9437 133.492 48.5042 124.719 54.4878C124.803 55.4219 124.79 56.6472 124.467 57.9837C123.846 60.7148 121.633 64.2848 116.192 66.5845C109.637 69.44 102.976 72.0176 96.2354 74.3121C96.1983 74.1903 96.1639 74.0686 96.1268 73.9468C99.8001 72.6183 110.447 68.5297 115.234 66.1955C120.082 64.0969 122.147 60.9132 122.774 58.243C123.438 55.5728 122.652 53.4239 122.676 53.4662C113.837 59.979 104.603 65.8673 95.0392 71.1072C94.9916 71.0146 94.9519 70.9167 94.9043 70.8214C97.5825 69.3024 104.418 65.3883 111.677 60.3866C121.112 54.0563 131.261 45.9266 135.903 41.7717C143.691 35.2086 145.88 28.0606 145.692 22.6989C145.575 17.3134 143.082 13.7143 143.154 13.7831C136.437 23.7204 129.064 33.0941 121.106 41.8458C121.461 42.817 121.789 44.1137 121.832 45.5905C121.959 48.5862 120.709 52.794 115.909 56.282C109.07 61.3684 101.997 66.1002 94.719 70.4562C94.6581 70.3398 94.5973 70.226 94.5364 70.1148C98.3843 67.7119 110.317 59.77 114.44 56.3111C118.648 53.1989 119.844 49.4807 119.728 46.5776C119.656 43.6691 118.275 41.5811 118.307 41.6235C110.206 51.2432 101.383 60.159 91.9402 68.302C91.1596 68.9478 89.7517 70.2101 88.3041 70.9167C91.5963 72.8988 93.8008 76.5033 93.8008 80.6264C93.8008 86.8799 88.7328 91.9478 82.4793 91.9478V99.0667C85.8482 98.0796 88.8598 96.2323 91.2443 93.7897C92.1917 94.6603 93.7822 96.1186 95.2457 97.3994C110.346 111.219 118.198 105.664 117.947 105.627C113.609 103.42 109.335 101.096 105.133 98.6512C104.535 98.9079 103.693 99.1514 102.619 99.1752C100.43 99.2731 96.9235 98.2674 92.5119 94.319C92.1891 94.0384 91.8714 93.7526 91.5486 93.4695C91.6227 93.3954 91.6941 93.316 91.763 93.2366C91.9958 93.4377 92.2738 93.6706 92.594 93.9485C100.327 100.824 104.786 97.2592 104.664 97.1983C100.92 95.1923 97.2304 93.0857 93.5996 90.8839C93.6975 90.7437 93.7875 90.5981 93.8801 90.4526C95.5315 91.4291 99.2233 93.57 105.119 96.6558C123.083 106.392 129.871 98.3204 129.607 98.3204C123.763 96.9469 117.97 95.3696 112.249 93.5991C111.701 94.0252 110.907 94.5069 109.835 94.8245C107.671 95.5152 103.96 95.4596 98.776 92.6306C97.204 91.8022 95.6479 90.958 94.1023 90.0926C94.1447 90.0212 94.1897 89.9471 94.2321 89.8783C95.0313 90.307 96.3809 91.0295 98.551 92.141C107.62 97.0554 111.378 92.1833 111.249 92.1357C105.942 90.696 100.697 89.0685 95.5129 87.2689C95.5791 87.0969 95.6426 86.9223 95.7088 86.7502C98.4479 87.658 105.797 90.0371 115.178 92.3316C124.925 94.8695 131.293 93.6547 134.971 91.6964C138.57 89.8227 139.655 87.2451 139.706 87.1631C132.552 87.2054 125.415 86.9487 118.309 86.4009C117.857 86.9937 117.169 87.7056 116.176 88.3169C114.175 89.6031 110.486 90.5187 104.812 88.9335C101.811 88.129 98.8184 87.2742 95.8464 86.3639C95.8888 86.2474 95.9311 86.131 95.9682 86.0119C97.4978 86.4565 100.446 87.298 104.556 88.3354C114.821 91.1909 117.658 84.9057 117.51 84.8818C110.534 84.5907 103.587 84.0085 96.68 83.1378C96.6986 83.0293 96.7118 82.9314 96.7303 82.8282C100.793 83.2728 114.051 84.4796 124.359 84.3658C134.429 84.5431 140.402 81.6082 143.567 78.5516C146.774 75.5188 147.176 72.3616 147.184 72.4543C139.102 74.447 130.954 76.0481 122.768 77.2548C122.456 77.9932 121.937 78.9142 121.096 79.8034C119.407 81.6506 115.978 83.5242 110.097 83.2384C105.657 83.0744 101.216 82.7938 96.7937 82.3969C96.807 82.2804 96.8229 82.164 96.8361 82.0475C99.2523 82.2196 104.699 82.5715 109.486 82.6562C120.056 83.1643 121.506 75.8787 121.342 75.8814C113.26 77.3634 105.122 78.4431 96.9632 79.1153C96.9579 78.9936 96.9526 78.8666 96.95 78.7475C99.0962 78.5305 103.738 78.0621 109.147 77.2443Z" fill="#D1A773"/>
<path d="M95.3463 24.9061C95.4177 24.9061 95.4918 24.869 95.5236 24.7949L99.2021 17.5781C99.2524 17.4801 99.2154 17.3585 99.1121 17.3055C99.0142 17.2553 98.8924 17.2949 98.8448 17.3955L95.1663 24.6176C95.1134 24.7102 95.1531 24.8319 95.2564 24.8849C95.2881 24.8954 95.3145 24.9061 95.3463 24.9061Z" fill="#D1A773"/>
<path d="M101.2 28.4919C101.261 28.4919 101.322 28.4628 101.364 28.4072L106.128 21.8521C106.189 21.7647 106.17 21.6377 106.08 21.5715C105.99 21.5054 105.866 21.5292 105.8 21.6191L101.036 28.1743C100.97 28.2643 100.994 28.3887 101.084 28.4549C101.121 28.476 101.158 28.4919 101.2 28.4919Z" fill="#D1A773"/>
<path d="M106.421 32.9512C106.474 32.9512 106.519 32.9273 106.562 32.8903L112.294 27.1635C112.368 27.0841 112.368 26.957 112.294 26.8776C112.214 26.8035 112.087 26.8035 112.008 26.8776L106.276 32.6098C106.196 32.6892 106.196 32.8109 106.276 32.8903C106.318 32.9273 106.371 32.9512 106.421 32.9512Z" fill="#D1A773"/>
<path d="M110.878 38.1672C110.92 38.1672 110.963 38.1567 110.995 38.1302L117.552 33.3666C117.642 33.3005 117.661 33.1787 117.595 33.0914C117.534 33.0014 117.407 32.9803 117.319 33.0438L110.762 37.8073C110.672 37.8735 110.653 37.9952 110.719 38.0878C110.756 38.1407 110.817 38.1672 110.878 38.1672Z" fill="#D1A773"/>
<path d="M40.0918 38.1672C40.1527 38.1672 40.2135 38.1381 40.2559 38.0878C40.322 37.9952 40.3035 37.8735 40.2082 37.8073L33.653 33.0438C33.5631 32.9776 33.4387 33.0014 33.3725 33.0914C33.3063 33.1814 33.3302 33.3005 33.4202 33.3666L39.9754 38.1302C40.0124 38.1593 40.0548 38.1672 40.0918 38.1672Z" fill="#D1A773"/>
<path d="M44.5508 32.9512C44.6011 32.9512 44.654 32.9273 44.691 32.8903C44.7704 32.8109 44.7704 32.6892 44.691 32.6098L38.9642 26.8776C38.8848 26.8035 38.7577 26.8035 38.6784 26.8776C38.599 26.957 38.599 27.0841 38.6784 27.1635L44.4105 32.8903C44.4476 32.9273 44.5005 32.9512 44.5508 32.9512Z" fill="#D1A773"/>
<path d="M49.7697 28.4919C49.8121 28.4919 49.8544 28.4787 49.8914 28.4549C49.9814 28.3887 49.9999 28.2643 49.9338 28.1743L45.1702 21.6192C45.104 21.5292 44.9823 21.5107 44.895 21.5715C44.8023 21.6377 44.7838 21.7621 44.8474 21.8521L49.6109 28.4073C49.6506 28.4628 49.7089 28.4919 49.7697 28.4919Z" fill="#D1A773"/>
<path d="M55.626 24.906C55.6551 24.906 55.6869 24.8954 55.716 24.8822C55.814 24.8319 55.8563 24.7102 55.806 24.6096L52.1275 17.3928C52.0772 17.2949 51.9555 17.2526 51.8575 17.3029C51.7596 17.3558 51.7225 17.4748 51.7675 17.5754L55.4514 24.7922C55.4805 24.8636 55.5519 24.906 55.626 24.906Z" fill="#D1A773"/>
<path d="M93.1312 21.2883C93.2105 21.2883 93.2846 21.2407 93.3137 21.1613L94.6079 18.0333C94.6502 17.9354 94.6025 17.8189 94.4993 17.7765C94.3961 17.7342 94.2798 17.7819 94.2374 17.8851L92.9433 21.0079C92.9009 21.1111 92.9538 21.2275 93.0544 21.2699C93.0809 21.2778 93.1047 21.2883 93.1312 21.2883Z" fill="#D1A773"/>
<path d="M99.5779 24.5699C99.6441 24.5699 99.7103 24.5382 99.7473 24.4773L101.515 21.5927C101.576 21.5001 101.544 21.3731 101.449 21.3175C101.356 21.2566 101.235 21.2884 101.174 21.3836L99.4112 24.2682C99.3504 24.3608 99.3795 24.4879 99.4774 24.5435C99.5092 24.5593 99.5409 24.5699 99.5779 24.5699Z" fill="#D1A773"/>
<path d="M105.432 28.8227C105.487 28.8227 105.543 28.7989 105.585 28.7539L107.779 26.1816C107.853 26.0969 107.845 25.9725 107.755 25.8958C107.676 25.8243 107.549 25.8402 107.475 25.9196L105.278 28.4945C105.21 28.5792 105.218 28.701 105.302 28.7751C105.337 28.8042 105.384 28.8227 105.432 28.8227Z" fill="#D1A773"/>
<path d="M110.545 33.9383C110.592 33.9383 110.637 33.9251 110.674 33.8907L113.247 31.6941C113.331 31.6227 113.339 31.4983 113.271 31.4136C113.202 31.3289 113.075 31.321 112.99 31.3898L110.42 33.5863C110.336 33.6604 110.328 33.7822 110.397 33.8721C110.434 33.9145 110.489 33.9383 110.545 33.9383Z" fill="#D1A773"/>
<path d="M114.8 39.7895C114.837 39.7895 114.874 39.7789 114.903 39.7604L117.788 37.9926C117.881 37.937 117.915 37.81 117.854 37.7173C117.798 37.6247 117.677 37.5956 117.584 37.6512L114.7 39.419C114.607 39.4745 114.573 39.6016 114.633 39.6942C114.668 39.7577 114.734 39.7895 114.8 39.7895Z" fill="#D1A773"/>
<path d="M36.1697 39.7896C36.2411 39.7896 36.3047 39.7578 36.3417 39.6969C36.3973 39.6043 36.3708 39.4772 36.2756 39.4217L33.3909 37.6539C33.2983 37.5983 33.1713 37.6248 33.1157 37.72C33.0601 37.8127 33.0866 37.9397 33.1818 37.9953L36.0665 39.7631C36.1009 39.7816 36.1379 39.7896 36.1697 39.7896Z" fill="#D1A773"/>
<path d="M40.425 33.9383C40.4806 33.9383 40.5362 33.9145 40.5785 33.8668C40.65 33.7821 40.6394 33.6604 40.5547 33.5863L37.985 31.3898C37.9003 31.3183 37.7759 31.3289 37.7045 31.4136C37.6304 31.4983 37.6383 31.6227 37.723 31.6941L40.298 33.8907C40.3298 33.9224 40.3774 33.9383 40.425 33.9383Z" fill="#D1A773"/>
<path d="M45.538 28.8227C45.5909 28.8227 45.6306 28.8042 45.6677 28.7751C45.7524 28.701 45.7656 28.5793 45.6915 28.4946L43.5002 25.9196C43.4261 25.8402 43.2991 25.827 43.2144 25.8959C43.1298 25.97 43.1218 26.0969 43.1906 26.1816L45.3871 28.7539C45.4268 28.7989 45.4877 28.8227 45.538 28.8227Z" fill="#D1A773"/>
<path d="M51.3945 24.57C51.4263 24.57 51.466 24.5594 51.4977 24.5408C51.5904 24.4853 51.6248 24.3582 51.5639 24.2656L49.796 21.381C49.7405 21.2884 49.6187 21.254 49.5208 21.3149C49.4282 21.3704 49.3991 21.4975 49.4546 21.5901L51.2225 24.4747C51.2648 24.5355 51.3257 24.57 51.3945 24.57Z" fill="#D1A773"/>
<path d="M57.8412 21.2883C57.865 21.2883 57.8941 21.2778 57.9153 21.2699C58.0185 21.2275 58.0661 21.1111 58.0237 21.0079L56.7323 17.8851C56.6846 17.7819 56.5682 17.7342 56.465 17.7765C56.367 17.8189 56.3168 17.9354 56.3565 18.0333L57.6506 21.1613C57.6877 21.2354 57.7618 21.2883 57.8412 21.2883Z" fill="#D1A773"/>
<path d="M92.2526 13.3624C92.1441 13.6932 92.3267 14.0504 92.6602 14.1563C92.9936 14.2621 93.3482 14.0822 93.4541 13.7487C93.5626 13.4206 93.38 13.0607 93.0465 12.9548C92.721 12.8489 92.3611 13.0316 92.2526 13.3624Z" fill="#D1A773"/>
<path d="M100.438 16.6439C100.279 16.9536 100.406 17.3373 100.713 17.4934C101.026 17.6522 101.407 17.5252 101.563 17.2182C101.722 16.9059 101.594 16.5248 101.287 16.3687C100.981 16.2099 100.597 16.337 100.438 16.6439Z" fill="#D1A773"/>
<path d="M49.4042 116.803C49.2507 117.115 49.3725 117.494 49.6794 117.652C49.9917 117.811 50.3728 117.684 50.5289 117.377C50.6877 117.068 50.566 116.689 50.2537 116.528C49.9467 116.369 49.563 116.493 49.4042 116.803Z" fill="#D1A773"/>
<path d="M108.012 21.1693C107.806 21.4498 107.867 21.8468 108.152 22.0479C108.433 22.2543 108.825 22.1935 109.036 21.9129C109.237 21.6271 109.176 21.2354 108.896 21.029C108.61 20.8252 108.218 20.8888 108.012 21.1693Z" fill="#D1A773"/>
<path d="M41.9387 112.108C41.7323 112.389 41.7985 112.786 42.079 112.992C42.3595 113.199 42.7565 113.138 42.9576 112.852C43.164 112.571 43.1032 112.18 42.8226 111.973C42.5368 111.767 42.1451 111.828 41.9387 112.108Z" fill="#D1A773"/>
<path d="M114.782 26.822C114.538 27.0708 114.538 27.4677 114.782 27.7165C115.03 27.9653 115.433 27.9653 115.676 27.7165C115.925 27.4677 115.925 27.0708 115.676 26.822C115.43 26.5733 115.028 26.5733 114.782 26.822Z" fill="#D1A773"/>
<path d="M120.588 33.4645C120.302 33.671 120.241 34.0627 120.448 34.3432C120.654 34.629 121.046 34.6899 121.326 34.4834C121.612 34.277 121.673 33.8853 121.466 33.6048C121.26 33.319 120.868 33.2581 120.588 33.4645Z" fill="#D1A773"/>
<path d="M30.3873 33.4646C30.1014 33.2581 29.7097 33.319 29.5033 33.5995C29.2969 33.8853 29.3578 34.277 29.6436 34.4835C29.9241 34.6899 30.3211 34.629 30.5222 34.3485C30.7286 34.0627 30.6678 33.671 30.3873 33.4646Z" fill="#D1A773"/>
<path d="M36.1881 26.822C35.9447 26.5733 35.5424 26.5733 35.2936 26.822C35.0501 27.0708 35.0448 27.4677 35.2936 27.7165C35.5424 27.9653 35.9394 27.9653 36.1881 27.7165C36.4369 27.4677 36.4369 27.0655 36.1881 26.822Z" fill="#D1A773"/>
<path d="M109.036 112.108C108.827 111.828 108.433 111.767 108.152 111.973C107.867 112.18 107.806 112.571 108.012 112.852C108.218 113.138 108.61 113.199 108.896 112.992C109.176 112.786 109.237 112.389 109.036 112.108Z" fill="#D1A773"/>
<path d="M42.9576 21.1666C42.7565 20.8914 42.3595 20.8252 42.079 21.0316C41.7985 21.2381 41.7323 21.6298 41.9387 21.9156C42.1451 22.1961 42.5368 22.257 42.8173 22.0505C43.1031 21.8441 43.164 21.4524 42.9576 21.1666Z" fill="#D1A773"/>
<path d="M101.565 116.803C101.407 116.493 101.028 116.369 100.716 116.528C100.406 116.692 100.282 117.07 100.441 117.377C100.599 117.687 100.983 117.811 101.29 117.652C101.597 117.494 101.724 117.115 101.565 116.803Z" fill="#D1A773"/>
<path d="M50.5289 16.6439C50.3701 16.3343 49.9917 16.2099 49.6794 16.3687C49.3698 16.5275 49.2507 16.9059 49.4042 17.2182C49.563 17.5252 49.9467 17.6469 50.2537 17.4934C50.5686 17.3373 50.6903 16.9535 50.5289 16.6439Z" fill="#D1A773"/>
<path d="M93.4539 120.272C93.3454 119.942 92.9908 119.759 92.66 119.865C92.3292 119.971 92.1465 120.328 92.2524 120.659C92.3609 120.995 92.7208 121.172 93.0463 121.066C93.3798 120.958 93.5624 120.603 93.4539 120.272Z" fill="#D1A773"/>
<path d="M58.7171 13.3624C58.6086 13.0316 58.254 12.8489 57.9232 12.9548C57.5924 13.0607 57.4124 13.4232 57.5209 13.7487C57.6242 14.0795 57.9841 14.2621 58.3149 14.1563C58.6457 14.0504 58.823 13.6958 58.7171 13.3624Z" fill="#D1A773"/>
<path d="M84.8983 122.427C84.8481 122.08 84.5251 121.847 84.1785 121.903C83.8318 121.958 83.5989 122.281 83.6545 122.622C83.7048 122.969 84.0277 123.202 84.3744 123.152C84.721 123.094 84.9566 122.768 84.8983 122.427Z" fill="#D1A773"/>
<path d="M96.4075 14.8443C96.2778 15.1619 96.4313 15.5324 96.7542 15.6673C97.0771 15.797 97.4424 15.6488 97.5773 15.3259C97.7123 15.0031 97.5588 14.6326 97.2359 14.4976C96.9131 14.368 96.5451 14.5241 96.4075 14.8443Z" fill="#D1A773"/>
<path d="M53.3951 118.695C53.2602 119.018 53.4137 119.386 53.7312 119.524C54.0541 119.653 54.4219 119.5 54.5569 119.182C54.6892 118.859 54.5384 118.491 54.2155 118.356C53.8953 118.224 53.5275 118.372 53.3951 118.695Z" fill="#D1A773"/>
<path d="M104.315 18.7584C104.132 19.0575 104.225 19.4464 104.524 19.629C104.818 19.8116 105.207 19.7191 105.389 19.42C105.572 19.1263 105.479 18.7373 105.183 18.5546C104.884 18.3694 104.495 18.4594 104.315 18.7584Z" fill="#D1A773"/>
<path d="M45.5803 114.606C45.3977 114.906 45.493 115.295 45.7894 115.477C46.0832 115.66 46.4722 115.562 46.6548 115.268C46.8374 114.969 46.7421 114.58 46.4484 114.397C46.1493 114.212 45.7629 114.31 45.5803 114.606Z" fill="#D1A773"/>
<path d="M111.508 23.8633C111.278 24.1306 111.312 24.5276 111.579 24.7525C111.847 24.9828 112.243 24.9484 112.468 24.6811C112.699 24.4191 112.664 24.0168 112.4 23.7918C112.135 23.5695 111.733 23.6013 111.508 23.8633Z" fill="#D1A773"/>
<path d="M38.5011 109.34C38.2762 109.607 38.3053 110.004 38.5726 110.229C38.8399 110.454 39.2368 110.425 39.4671 110.158C39.692 109.891 39.6576 109.494 39.3956 109.269C39.1283 109.046 38.7314 109.075 38.5011 109.34Z" fill="#D1A773"/>
<path d="M117.814 30.0295C117.547 30.2597 117.52 30.6514 117.743 30.9187C117.973 31.186 118.365 31.2178 118.632 30.9902C118.899 30.7652 118.931 30.3683 118.706 30.101C118.479 29.8337 118.076 29.7993 117.814 30.0295Z" fill="#D1A773"/>
<path d="M123.078 37.106C122.779 37.2886 122.687 37.675 122.869 37.9767C123.057 38.2705 123.443 38.3657 123.74 38.1858C124.039 37.9979 124.131 37.6115 123.949 37.3151C123.766 37.0187 123.372 36.9234 123.078 37.106Z" fill="#D1A773"/>
<path d="M27.8915 37.106C27.5978 36.9234 27.2088 37.016 27.0262 37.3124C26.8435 37.6115 26.9362 38.0005 27.2326 38.1857C27.5263 38.3631 27.9207 38.2704 28.1033 37.9767C28.2832 37.6776 28.1906 37.2886 27.8915 37.106Z" fill="#D1A773"/>
<path d="M33.1553 30.0295C32.8933 29.7993 32.491 29.8337 32.266 30.0983C32.0411 30.3656 32.0702 30.7626 32.3375 30.9875C32.6048 31.2178 33.0018 31.1834 33.232 30.9214C33.4543 30.6514 33.4199 30.2571 33.1553 30.0295Z" fill="#D1A773"/>
<path d="M112.466 109.34C112.241 109.073 111.844 109.046 111.577 109.271C111.31 109.496 111.278 109.893 111.505 110.16C111.73 110.428 112.133 110.454 112.395 110.235C112.662 110.004 112.696 109.607 112.466 109.34Z" fill="#D1A773"/>
<path d="M39.4644 23.8633C39.2342 23.596 38.8373 23.5696 38.57 23.7945C38.3027 24.0195 38.2762 24.4218 38.4985 24.6837C38.7287 24.951 39.1257 24.9828 39.393 24.7552C39.6576 24.5276 39.6894 24.1253 39.4644 23.8633Z" fill="#D1A773"/>
<path d="M105.389 114.606C105.207 114.313 104.82 114.215 104.524 114.397C104.225 114.58 104.132 114.966 104.315 115.268C104.498 115.562 104.887 115.66 105.186 115.477C105.477 115.292 105.572 114.905 105.389 114.606Z" fill="#D1A773"/>
<path d="M46.6547 18.7584C46.472 18.4594 46.083 18.3694 45.7893 18.5493C45.4902 18.7372 45.3976 19.121 45.5802 19.42C45.7628 19.7191 46.1518 19.809 46.4509 19.629C46.7446 19.4464 46.8373 19.0574 46.6547 18.7584Z" fill="#D1A773"/>
<path d="M97.5773 118.695C97.4477 118.372 97.0771 118.221 96.7542 118.354C96.4313 118.489 96.2778 118.859 96.4075 119.177C96.5425 119.5 96.9131 119.653 97.2359 119.524C97.5588 119.389 97.7123 119.018 97.5773 118.695Z" fill="#D1A773"/>
<path d="M54.5595 14.8444C54.4245 14.5162 54.054 14.368 53.7365 14.4977C53.4136 14.6326 53.2601 15.0031 53.3951 15.326C53.5274 15.6488 53.8952 15.797 54.2181 15.6674C54.5409 15.5324 54.6918 15.1646 54.5595 14.8444Z" fill="#D1A773"/>
<path d="M89.2199 121.514C89.1405 121.178 88.799 120.966 88.4629 121.045C88.1215 121.13 87.9125 121.471 87.9945 121.807C88.0739 122.149 88.4154 122.358 88.7568 122.276C89.0929 122.196 89.3019 121.855 89.2199 121.514Z" fill="#D1A773"/>
</svg>
