<svg width="901" height="81" viewBox="0 0 901 81" fill="none" xmlns="http://www.w3.org/2000/svg">
<path d="M98.2264 78.5893H73.0299V3.13393H98.2264V78.5893ZM7.99889 16.6339L39.3545 69.4286L34.7152 77.1429L34.6352 77.2232L7.99889 32.3839V78.5893H0V3.13393L7.99889 16.6339ZM63.0313 14.4643L71.0302 2.41072V78.5893H63.0313V29.9732L55.5923 42.2679L41.4343 65.9732L36.7949 58.0982L4.07943 3.13393H32.3155L50.9529 34.4732L63.0313 14.4643Z" fill="#EFC18E"/>
<path d="M151.74 0.482146C156.806 0.482146 161.552 1.52679 165.978 3.61607C170.457 5.70536 174.35 8.57143 177.656 12.2143C181.016 15.8036 183.655 20.0357 185.575 24.9107C187.495 29.7857 188.454 34.9821 188.454 40.5C188.454 46.0179 187.495 51.2143 185.575 56.0893C183.655 60.9643 181.016 65.2232 177.656 68.8661C174.35 72.4554 170.457 75.2946 165.978 77.3839C161.552 79.4732 156.806 80.5179 151.74 80.5179C146.674 80.5179 141.901 79.4732 137.422 77.3839C132.942 75.2946 129.049 72.4554 125.743 68.8661C122.437 65.2232 119.824 60.9643 117.904 56.0893C115.985 51.2143 115.025 46.0179 115.025 40.5C115.025 34.9821 115.985 29.7857 117.904 24.9107C119.824 20.0357 122.437 15.8036 125.743 12.2143C129.049 8.57143 132.942 5.70536 137.422 3.61607C141.901 1.52679 146.674 0.482146 151.74 0.482146ZM151.74 72.8839C155.846 72.8839 159.685 72.0536 163.258 70.3929C166.884 68.6786 170.03 66.3482 172.697 63.4018C175.416 60.4554 177.549 57.0268 179.096 53.1161C180.642 49.2054 181.415 45 181.415 40.5C181.415 36 180.642 31.7946 179.096 27.8839C177.549 23.9732 175.416 20.5446 172.697 17.5982C170.03 14.6518 166.884 12.3482 163.258 10.6875C159.685 8.97321 155.846 8.11607 151.74 8.11607C147.633 8.11607 143.767 8.97321 140.141 10.6875C136.568 12.3482 133.422 14.6518 130.702 17.5982C128.036 20.5446 125.93 23.9732 124.383 27.8839C122.837 31.7946 122.064 36 122.064 40.5C122.064 45 122.837 49.2054 124.383 53.1161C125.93 57.0268 128.036 60.4554 130.702 63.4018C133.422 66.3482 136.568 68.6786 140.141 70.3929C143.767 72.0536 147.633 72.8839 151.74 72.8839ZM151.74 69.0268C148.327 69.0268 145.127 68.2768 142.141 66.7768C139.155 65.2768 136.542 63.2411 134.302 60.6696C132.062 58.0982 130.303 55.0982 129.023 51.6696C127.743 48.1875 127.103 44.4643 127.103 40.5C127.103 36.5893 127.743 32.8929 129.023 29.4107C130.303 25.9286 132.062 22.9018 134.302 20.3304C136.542 17.7589 139.155 15.7232 142.141 14.2232C145.127 12.7232 148.327 11.9732 151.74 11.9732V69.0268Z" fill="#EFC18E"/>
<path d="M287.001 2.8125V57.6964L279.083 44.4375V2.8125H287.001ZM269.804 78.1875L224.85 2.8125H231.809L276.763 78.1875H269.804ZM221.73 5.22322L228.61 16.3929L265.484 78.1875H256.366L228.61 31.5804V78.1875H221.73V5.22322ZM278.363 78.1875L233.409 2.8125H239.248L284.202 78.1875H278.363ZM240.848 2.8125H246.047L287.001 71.5179V78.1875H285.802L240.848 2.8125ZM287.001 59.625V68.3036L247.967 2.8125H253.086L287.001 59.625Z" fill="#EFC18E"/>
<path d="M336.995 78.1875H328.916V2.8125H336.995V78.1875ZM348.274 78.1875H340.275V2.8125H348.274V78.1875ZM354.113 78.1875H349.473V2.8125H354.113V78.1875ZM359.952 78.1875H355.313V2.8125H359.952V78.1875ZM365.631 78.1875H360.912V2.8125H365.631V78.1875ZM384.988 9.72322H367.551V2.8125H384.988V9.72322ZM384.988 41.9464H367.551V35.0357H384.988V41.9464ZM384.988 78.1875H367.551V70.7946H384.988V78.1875Z" fill="#EFC18E"/>
<path d="M448.9 43.875V78.1875H440.901V45.4821L423.064 2.8125H431.703L448.9 43.875ZM474.657 27.2411L487.535 2.8125H496.174L478.416 36.4018L474.657 27.2411ZM450.82 2.8125L466.018 39.6161V78.1875H461.219V40.4196L445.701 2.8125H450.82ZM456.899 2.8125L471.617 38.5714V78.1875H467.138V39.4554L452.1 2.8125H456.899ZM444.501 2.8125L460.019 40.5804V78.1875H452.42L452.58 42.5893L436.022 2.8125H444.501ZM477.536 37.2054V78.1875H472.737V38.3304L458.099 2.8125H463.378L477.536 37.2054Z" fill="#EFC18E"/>
<path d="M542.808 78.1875H534.649V2.8125H542.808V78.1875ZM570.484 78.1875H545.128V2.8125H570.484V78.1875ZM589.841 9.72322H572.404V2.8125H589.841V9.72322ZM589.841 41.9464H572.404V35.0357H589.841V41.9464Z" fill="#EFC18E"/>
<path d="M644.874 78.1875H636.795V2.8125H644.874V78.1875ZM656.153 78.1875H648.154V2.8125H656.153V78.1875ZM661.992 78.1875H657.353V2.8125H661.992V78.1875ZM667.831 78.1875H663.192V2.8125H667.831V78.1875ZM673.51 78.1875H668.791V2.8125H673.51V78.1875ZM692.868 9.72322H675.43V2.8125H692.868V9.72322ZM692.868 41.9464H675.43V35.0357H692.868V41.9464ZM692.868 78.1875H675.43V70.7946H692.868V78.1875Z" fill="#EFC18E"/>
<path d="M765.098 0C769.951 0 774.324 1.15179 778.216 3.45536C782.163 5.75893 785.335 8.8125 787.735 12.6161L781.656 16.3929C779.95 13.6071 777.63 11.3839 774.697 9.72322C771.817 8.00893 768.618 7.15179 765.098 7.15179C762.379 7.15179 759.819 7.6875 757.419 8.75893C755.073 9.77679 753.02 11.1696 751.26 12.9375C749.5 14.7054 748.087 16.7946 747.021 19.2054C746.008 21.5625 745.501 24.1071 745.501 26.8393C745.501 29.0893 745.848 31.2054 746.541 33.1875C747.287 35.1696 748.274 37.0179 749.5 38.7321L749.58 38.6518L753.5 42.5893L764.538 53.5982L768.058 57.1339C768.644 57.5625 769.151 58.0179 769.578 58.5C770.004 58.9286 770.431 59.4107 770.857 59.9464L771.097 60.1071L771.017 60.1875C771.764 61.2589 772.351 62.4375 772.777 63.7232C773.257 65.0089 773.497 66.375 773.497 67.8214C773.497 69.6429 773.15 71.3571 772.457 72.9643C771.764 74.5714 770.804 75.9643 769.578 77.1429C768.404 78.3214 767.018 79.2589 765.418 79.9554C763.818 80.6518 762.112 81 760.299 81C758.539 81 756.779 80.8393 755.02 80.5179C753.26 80.1964 751.553 79.5804 749.9 78.6696C748.247 77.7054 746.648 76.3661 745.101 74.6518C743.608 72.9375 742.221 70.7143 740.942 67.9821L746.861 65.0893C747.341 66.1607 747.954 67.2589 748.701 68.3839C749.447 69.4554 750.3 70.4464 751.26 71.3571C752.22 72.2679 753.313 73.0179 754.54 73.6071C755.766 74.1964 757.153 74.4643 758.699 74.4107C759.766 74.4107 760.752 74.1964 761.659 73.7679C762.619 73.3393 763.418 72.8036 764.058 72.1607C764.752 71.4643 765.285 70.6607 765.658 69.75C766.085 68.8393 766.298 67.8482 766.298 66.7768C766.298 66.5089 766.245 66.2679 766.138 66.0536C766.085 65.8393 766.031 65.5982 765.978 65.3304L759.739 59.1429L755.82 55.2054L747.661 47.1696C747.234 46.7411 746.781 46.3125 746.301 45.8839C745.874 45.4018 745.448 44.9464 745.021 44.5179L744.461 43.875V43.7946C742.595 41.4911 741.102 38.8929 739.982 36C738.915 33.1071 738.382 30.0536 738.382 26.8393C738.382 23.1429 739.075 19.6607 740.462 16.3929C741.901 13.125 743.821 10.2857 746.221 7.875C748.621 5.41072 751.447 3.48215 754.7 2.08929C757.953 0.696429 761.419 0 765.098 0ZM788.695 37.125C789.602 37.9286 790.481 38.7589 791.335 39.6161C792.241 40.4732 793.014 41.4643 793.654 42.5893C795.574 45.75 796.534 49.3393 796.534 53.3571C796.534 55.7143 796.187 57.9375 795.494 60.0268C794.854 62.1161 794.001 64.0179 792.934 65.7321C792.241 66.8036 791.495 67.875 790.695 68.9464C789.948 70.0179 789.122 71.0625 788.215 72.0804C786.082 74.3304 783.789 76.0982 781.336 77.3839C778.883 78.6696 776.403 79.4732 773.897 79.7946C775.443 77.4375 776.457 74.7589 776.937 71.7589C777.097 70.6339 777.177 69.5089 777.177 68.3839C777.177 64.7411 776.35 61.5268 774.697 58.7411C773.044 55.9018 771.044 53.5446 768.698 51.6696C767.898 51.0268 766.991 50.1964 765.978 49.1786C764.965 48.1607 763.925 47.1161 762.859 46.0446C761.792 44.9196 760.752 43.8482 759.739 42.8304C758.726 41.7589 757.846 40.9018 757.099 40.2589C756.406 39.6696 755.74 39.1071 755.1 38.5714C754.513 37.9821 753.953 37.3393 753.42 36.6429C752.46 35.3571 751.713 33.9375 751.18 32.3839C750.647 30.7768 750.38 29.1161 750.38 27.4018C750.38 25.3125 750.86 23.2768 751.82 21.2946C752.78 19.2589 753.98 17.5179 755.42 16.0714C756.913 14.5714 758.539 13.4196 760.299 12.6161C762.112 11.8125 763.845 11.5714 765.498 11.8929L788.695 37.125Z" fill="#EFC18E"/>
<path d="M870.124 78.1875H863.325V2.8125H870.124V78.1875ZM875.883 78.1875H871.564V2.8125H875.883V78.1875ZM881.643 78.1875H878.283V2.8125H881.643V78.1875ZM887.322 78.1875H883.722V2.8125H887.322V78.1875ZM901 10.2857H889.722V2.8125H901V10.2857ZM839.249 2.8125V10.2857H851.647V78.1875H859.646V2.8125H839.249Z" fill="#EFC18E"/>
</svg>
