<svg width="157" height="145" viewBox="0 0 157 145" fill="none" xmlns="http://www.w3.org/2000/svg">
<path d="M52.9321 20.3096L53.8119 22.6491L56.308 22.7632L54.3555 24.3224L55.0181 26.7311L52.9321 25.3563L50.845 26.7311L51.5075 24.3224L49.5551 22.7632L52.0512 22.6491L52.9321 20.3096Z" fill="#D1A773"/>
<path d="M41.8787 25.866L43.1686 29.294L46.8272 29.4603L43.9646 31.7464L44.9366 35.2788L41.8787 33.2632L38.8208 35.2788L39.7916 31.7464L36.9302 29.4603L40.5888 29.294L41.8787 25.866Z" fill="#D1A773"/>
<path d="M39.5225 41.1264L40.4022 43.4647L42.8983 43.5788L40.9459 45.1381L41.6084 47.5468L39.5225 46.1719L37.4353 47.5468L38.0991 45.1381L36.1467 43.5788L38.6415 43.4647L39.5225 41.1264Z" fill="#D1A773"/>
<path d="M104.224 20.3096L103.344 22.6491L100.848 22.7632L102.8 24.3224L102.138 26.7311L104.224 25.3563L106.31 26.7311L105.647 24.3224L107.599 22.7632L105.103 22.6491L104.224 20.3096Z" fill="#D1A773"/>
<path d="M115.277 25.866L113.987 29.294L110.329 29.4603L113.19 31.7464L112.219 35.2788L115.277 33.2632L118.335 35.2788L117.363 31.7464L120.226 29.4603L116.567 29.294L115.277 25.866Z" fill="#D1A773"/>
<path d="M117.633 41.1264L116.754 43.4647L114.258 43.5788L116.21 45.1381L115.548 47.5468L117.633 46.1719L119.719 47.5468L119.057 45.1381L121.009 43.5788L118.513 43.4647L117.633 41.1264Z" fill="#D1A773"/>
<path d="M90.1245 12.1697C90.4607 12.8116 90.6512 13.5409 90.6512 14.3163C90.6512 16.8767 88.5762 18.9517 86.0158 18.9517C83.4554 18.9517 81.3804 16.8767 81.3804 14.3163C81.3804 12.4877 82.4385 10.9077 83.976 10.153L77.9038 0L71.8317 10.153C73.3692 10.9077 74.4273 12.4877 74.4273 14.3163C74.4273 16.8767 72.3523 18.9517 69.7919 18.9517C67.2315 18.9517 65.1565 16.8767 65.1565 14.3163C65.1565 13.5421 65.347 12.8116 65.6832 12.1697L56.7267 8.39225L63.6555 22.6394L70.8707 24.7108L78.1939 19.2272L85.3569 24.5894L92.151 22.6382L99.0798 8.39103L90.1245 12.1697ZM77.9038 12.1054L75.6978 8.28546L77.9038 4.46551L80.1099 8.28546L77.9038 12.1054Z" fill="#D1A773"/>
<path d="M65.909 61.9529L58.7945 73.8654C60.9411 74.6517 63.3146 75.1395 65.909 75.324V61.9529Z" fill="#D1A773"/>
<path d="M65.9092 94.2563C65.453 94.749 64.9409 95.2356 64.3706 95.7174C62.9909 96.8847 61.6099 97.7281 60.9692 98.0969L51.6936 113.627L41.1875 119.603L54.2018 97.796C52.0176 98.7728 50.2508 99.1454 50.1416 99.1672L45.1494 100.191L47.0618 95.4674C47.0643 95.4601 47.1747 95.1883 47.3349 94.7429C46.9417 94.925 46.5061 95.0888 46.0328 95.2368L38.9001 107.181L38.5737 124.002L53.1946 115.679L65.9092 94.3886V94.2563Z" fill="#D1A773"/>
<path d="M70.7985 58.8477L68.5584 57.5153L67.7636 58.8477H70.7985Z" fill="#D1A773"/>
<path d="M97.4673 73.8788L90.2048 61.7163V75.3373L90.2254 75.3361C92.8696 75.1626 95.2843 74.676 97.4673 73.8788Z" fill="#D1A773"/>
<path d="M88.49 58.8477L87.6952 57.5153L85.4551 58.8477H88.49Z" fill="#D1A773"/>
<path d="M110.213 95.2222C109.758 95.079 109.34 94.9188 108.958 94.7429C109.119 95.1882 109.229 95.4613 109.232 95.4673L111.144 100.191L106.152 99.1684C106.041 99.1453 104.247 98.7691 102.038 97.7729L115.066 119.603L104.56 113.627L95.2646 98.0629C94.6009 97.6782 93.2612 96.8507 91.9216 95.7173C91.276 95.1712 90.7033 94.6179 90.2033 94.0585V94.1507L103.059 115.677L117.68 124.001L117.353 107.18L110.213 95.2222Z" fill="#D1A773"/>
<path d="M64.7451 83.4225C64.5716 84.8775 64.2561 86.2754 63.8666 87.6369C63.6311 88.4535 63.3678 89.2568 63.079 90.0468C62.789 90.838 62.4796 91.6158 62.1301 92.3827L61.7515 92.2516C61.9287 91.4507 62.067 90.6341 62.1823 89.8223C62.2963 89.008 62.3837 88.1938 62.4407 87.382C62.539 85.9671 62.5475 84.5535 62.4092 83.1956C61.5549 83.0864 60.7031 82.9505 59.8549 82.7806C59.6061 83.4007 59.3379 84.0086 59.0504 84.602C58.5577 85.6225 58.0165 86.6091 57.4413 87.5689C56.8661 88.5287 56.2582 89.4619 55.6199 90.3708C54.9804 91.2796 54.3203 92.1655 53.6117 93.0234L53.2864 92.7904C53.8386 91.8524 54.347 90.8804 54.8239 89.9024C55.2996 88.9231 55.7425 87.9293 56.1441 86.9245C56.7557 85.392 57.2799 83.8278 57.6464 82.2613C56.7982 82.0307 55.9561 81.7674 55.126 81.464C54.7523 81.3281 54.3822 81.1825 54.0133 81.0308C52.5657 82.7369 50.9772 84.2695 49.3209 85.699C48.3756 86.512 47.406 87.2898 46.4146 88.0361C45.422 88.7799 44.4149 89.4959 43.3689 90.1657L43.1335 89.8417C44.0569 89.0469 44.9464 88.2011 45.8091 87.3383C46.6707 86.4744 47.5043 85.5849 48.3028 84.6712C49.5927 83.192 50.7976 81.6472 51.8461 80.0346C51.2005 79.7033 50.5671 79.3477 49.9482 78.9655C49.5454 78.7168 49.1474 78.4571 48.7578 78.1877C46.4608 79.5929 44.0678 80.7554 41.6312 81.771C40.3425 82.3062 39.0417 82.7976 37.73 83.2514C36.4158 83.7028 35.0968 84.1203 33.7535 84.4782L33.6297 84.0972C34.8965 83.5815 36.1464 83.0027 37.3744 82.3984C38.6024 81.7916 39.811 81.1497 40.9941 80.4726C43.0073 79.3174 44.9537 78.0566 46.7629 76.6636C46.2921 76.2692 45.8346 75.8603 45.3929 75.4356C45.0204 75.0776 44.6588 74.7087 44.3081 74.3313C41.1774 75.2499 38.0006 75.8761 34.8177 76.325C33.0521 76.5726 31.2817 76.7631 29.51 76.9002C27.7372 77.0349 25.9679 77.1296 24.1878 77.1393L24.1696 76.7388C25.917 76.5556 27.6619 76.2898 29.3923 75.9841C31.1239 75.6746 32.8434 75.3154 34.5458 74.9029C37.3149 74.2294 40.044 73.414 42.6724 72.4044C42.0583 71.6132 41.4856 70.7917 40.9553 69.9459C37.4254 70.1983 33.9197 70.0915 30.4529 69.7821C28.6764 69.6219 26.9096 69.4047 25.1525 69.1365C23.3954 68.8659 21.6505 68.5541 19.9152 68.1597L19.988 67.7653C21.7306 67.985 23.4913 68.1221 25.2459 68.2167C27.0018 68.309 28.7589 68.3502 30.5111 68.3356C33.5836 68.3065 36.6512 68.1112 39.6484 67.6573C39.3754 67.1295 39.1145 66.5956 38.8718 66.0556C38.7529 65.7923 38.6376 65.5265 38.5248 65.2595C34.757 64.5339 31.1021 63.4551 27.5381 62.181C25.6585 61.5063 23.8031 60.7734 21.9745 59.9883C20.1458 59.2008 18.3402 58.372 16.5697 57.457L16.7408 57.0954C18.5646 57.8429 20.4297 58.5067 22.3009 59.1255C24.1744 59.7407 26.065 60.3014 27.9665 60.7989C31.1336 61.6265 34.3408 62.2914 37.554 62.6955C37.3319 62.0342 37.1293 61.368 36.9461 60.6957C36.9084 60.5598 36.8745 60.4227 36.8381 60.2856C33.2232 58.9775 29.7733 57.3442 26.4424 55.5325C24.6708 54.5666 22.9331 53.5473 21.2294 52.4794C19.5257 51.408 17.8524 50.3013 16.2275 49.1133L16.452 48.782C18.1557 49.8135 19.9128 50.7673 21.6857 51.6761C23.4597 52.5838 25.2593 53.4381 27.0795 54.2329C30.0779 55.5398 33.137 56.6938 36.2435 57.5978C36.1779 57.2362 36.1173 56.8734 36.0639 56.5069C36.0299 56.2691 35.9984 56.0312 35.9692 55.7885V55.7837C34.3578 54.717 32.8482 53.5461 31.4054 52.318C29.7624 50.9177 28.2055 49.4397 26.7094 47.9132C25.2144 46.3855 23.7801 44.808 22.398 43.1916C21.0183 41.5729 19.681 39.9226 18.4202 38.2141L18.561 38.1C19.9929 39.6544 21.4951 41.1433 23.0289 42.591C24.5652 44.0362 26.1427 45.4317 27.7651 46.7628C29.3875 48.094 31.0535 49.3609 32.7718 50.5294C34.49 51.6955 36.2605 52.7658 38.0831 53.6565L38.6862 53.9514L38.833 54.8517L38.8573 55.1381L38.89 55.4524C38.9143 55.6635 38.9422 55.8771 38.9725 56.0907C39.0332 56.5178 39.1048 56.9474 39.1849 57.3757C39.3451 58.2324 39.5416 59.0855 39.7698 59.93C40.226 61.6192 40.8097 63.2731 41.5232 64.864C42.9466 68.0444 44.9063 70.9737 47.3866 73.3691C49.8596 75.7717 52.8508 77.6101 56.1053 78.8017C59.2093 79.9472 62.5305 80.5212 65.887 80.6801C65.887 78.3479 65.887 78.07 65.887 78.07C42.9709 76.5592 42.1142 53.8154 42.1142 53.8154C42.1142 53.8154 32.2815 48.4496 23.6721 39.3559C19.0549 34.479 17.3039 31.5765 9.42248 21.2099C9.42248 21.2099 7.41785 31.8968 11.3155 37.6304C12.6478 39.5913 17.8281 45.2011 17.8281 45.2011C17.8281 45.2011 12.6466 42.3531 9.82049 40.4335C6.60241 38.248 2.06166 33.45 2.06166 33.45C2.06166 33.45 2.27523 42.739 6.64003 46.6488C10.4042 50.021 16.9944 53.4599 16.9944 53.4599C16.9944 53.4599 14.6076 53.0109 11.2766 51.5766C7.84742 50.0998 0 46.1804 0 46.1804C0 46.1804 0.851845 54.9694 6.97373 58.1705C11.8676 60.7285 20.6797 63.3047 20.6797 63.3047C20.6797 63.3047 15.8647 63.0984 13.564 62.7016C11.1201 62.2805 3.80054 60.953 3.80054 60.953C3.80054 60.953 7.25525 67.485 13.0883 69.7226C18.6702 71.8644 27.6643 71.9566 27.6643 71.9566C27.6643 71.9566 23.8116 72.8121 20.3399 73.2501C15.0808 73.9151 11.9319 74.6747 11.6395 74.6747C11.6395 74.6747 14.4498 79.6657 22.6698 80.2675C29.5161 80.7687 36.7264 79.5043 36.7264 79.5043C36.7264 79.5043 32.2767 81.9712 30.7938 82.794C29.0974 83.7344 24.007 86.5581 24.007 86.5581C24.007 86.5581 29.1144 88.8467 33.5253 88.1647C35.7472 87.8213 41.5887 86.5581 41.5887 86.5581C41.5887 86.5581 40.021 89.2508 39.5271 89.8927C38.5308 91.1886 36.5262 93.3935 36.5262 93.3935C36.5262 93.3935 43.574 93.7575 46.5384 92.0927C48.1208 91.2044 52.1676 87.7546 52.1676 87.7546C52.1676 87.7546 51.425 90.2858 50.8947 92.4385C50.3644 94.5912 49.5915 96.4999 49.5915 96.4999C49.5915 96.4999 53.0195 95.7973 56.0179 93.6507C58.1597 92.1181 59.8682 88.3759 59.8682 88.3759L59.3246 95.8944C59.3246 95.8944 65.887 92.4288 65.887 88.2557C65.887 86.3275 65.887 84.7622 65.887 83.4905C65.5071 83.4686 65.1273 83.4492 64.7451 83.4225Z" fill="#D1A773"/>
<path d="M135.613 63.2962C135.613 63.2962 144.425 60.7201 149.319 58.1621C155.442 54.961 156.293 46.172 156.293 46.172C156.293 46.172 148.446 50.0914 145.016 51.5682C141.685 53.0025 139.299 53.4515 139.299 53.4515C139.299 53.4515 145.889 50.0113 149.653 46.6404C154.018 42.7294 154.231 33.4416 154.231 33.4416C154.231 33.4416 149.691 38.2396 146.472 40.425C143.646 42.3447 138.465 45.1927 138.465 45.1927C138.465 45.1927 143.645 39.5829 144.977 37.622C148.874 31.8884 146.87 21.2015 146.87 21.2015C138.989 31.5692 137.238 34.4706 132.621 39.3475C124.013 48.4411 114.179 53.807 114.179 53.807C114.179 53.807 113.322 76.552 90.406 78.0616C90.406 78.0616 90.406 78.3395 90.406 80.6839C93.8546 80.5443 97.2729 79.9703 100.461 78.7945C103.716 77.6029 106.706 75.7633 109.179 73.3619C111.66 70.9665 113.619 68.0372 115.044 64.8568C115.757 63.2659 116.341 61.612 116.797 59.9228C117.026 59.0783 117.221 58.2252 117.382 57.3685C117.462 56.9402 117.534 56.5106 117.595 56.0835C117.625 55.8699 117.653 55.6563 117.676 55.4452L117.709 55.1309L117.733 54.8445L117.88 53.9442L118.483 53.6493C120.306 52.7586 122.076 51.6883 123.794 50.5222C125.512 49.3537 127.179 48.0868 128.801 46.7556C130.423 45.4245 132.001 44.0278 133.537 42.5838C135.071 41.1373 136.573 39.6472 138.005 38.0928L138.146 38.2069C136.885 39.9154 135.549 41.5657 134.168 43.1844C132.786 44.8008 131.352 46.3783 129.857 47.906C128.36 49.4325 126.804 50.9105 125.161 52.3108C123.717 53.5389 122.208 54.7111 120.597 55.7765V55.7813C120.569 56.0228 120.537 56.2619 120.502 56.4997C120.449 56.8662 120.388 57.229 120.323 57.5906C123.429 56.6878 126.489 55.5326 129.487 54.2257C131.307 53.4309 133.106 52.5754 134.88 51.6689C136.652 50.76 138.41 49.8051 140.114 48.7748L140.338 49.1061C138.714 50.2941 137.039 51.402 135.337 52.4722C133.633 53.5401 131.895 54.5594 130.124 55.5253C126.791 57.337 123.343 58.9703 119.728 60.2784C119.693 60.4155 119.658 60.5514 119.62 60.6885C119.437 61.3608 119.234 62.027 119.012 62.6883C122.225 62.2842 125.432 61.6193 128.599 60.7917C130.502 60.2929 132.392 59.7335 134.265 59.1183C136.137 58.5007 138.001 57.8369 139.825 57.0882L139.996 57.4498C138.226 58.3648 136.42 59.1936 134.592 59.9811C132.762 60.7662 130.907 61.4991 129.028 62.1738C125.464 63.4479 121.809 64.5267 118.041 65.2523C117.928 65.5181 117.814 65.7838 117.694 66.0484C117.45 66.5884 117.191 67.1223 116.918 67.6501C119.916 68.104 122.982 68.2993 126.055 68.3285C127.807 68.343 129.563 68.303 131.319 68.2095C133.074 68.1149 134.834 67.9778 136.577 67.7581L136.65 68.1525C134.916 68.5469 133.171 68.8587 131.412 69.1293C129.655 69.3975 127.888 69.6147 126.112 69.7749C122.645 70.0843 119.139 70.1911 115.609 69.9387C115.079 70.7845 114.505 71.606 113.892 72.3972C116.521 73.4068 119.25 74.2222 122.019 74.8957C123.721 75.3082 125.442 75.6674 127.172 75.9769C128.903 76.2827 130.648 76.5496 132.395 76.7316L132.377 77.1321C130.598 77.1224 128.828 77.0289 127.055 76.893C125.283 76.7547 123.513 76.5654 121.747 76.3178C118.563 75.8689 115.386 75.2427 112.257 74.3241C111.906 74.7015 111.544 75.0704 111.172 75.4284C110.73 75.8531 110.271 76.262 109.802 76.6564C111.61 78.0507 113.557 79.3102 115.571 80.4654C116.754 81.1425 117.962 81.7845 119.19 82.3912C120.418 82.9955 121.668 83.5743 122.935 84.09L122.811 84.471C121.468 84.1131 120.149 83.6944 118.835 83.2442C117.523 82.7916 116.221 82.299 114.934 81.7638C112.497 80.7482 110.103 79.5857 107.807 78.1805C107.417 78.4499 107.021 78.7096 106.617 78.9583C105.998 79.3406 105.364 79.6961 104.719 80.0274C105.767 81.6401 106.972 83.186 108.262 84.664C109.06 85.5777 109.893 86.4672 110.756 87.3312C111.618 88.1939 112.508 89.0385 113.431 89.8345L113.196 90.1585C112.15 89.4887 111.143 88.774 110.15 88.0289C109.159 87.2838 108.189 86.506 107.244 85.6918C105.588 84.2623 103.999 82.7297 102.551 81.0236C102.183 81.1753 101.812 81.3209 101.439 81.4568C100.609 81.7602 99.7666 82.0235 98.9184 82.2541C99.2848 83.8206 99.8091 85.3848 100.421 86.9174C100.822 87.9221 101.265 88.9147 101.741 89.8952C102.219 90.8732 102.726 91.8464 103.278 92.7832L102.953 93.0162C102.244 92.1595 101.584 91.2725 100.945 90.3636C100.308 89.4547 99.6986 88.5216 99.1247 87.5617C98.5495 86.6019 98.0095 85.6153 97.5156 84.5948C97.228 84.0002 96.9611 83.3935 96.7111 82.7734C95.8641 82.9433 95.011 83.0804 94.1568 83.1884C94.0184 84.5463 94.0282 85.9612 94.1252 87.3748C94.1823 88.1866 94.2696 89.0021 94.3837 89.8151C94.499 90.6269 94.6373 91.4448 94.8145 92.2444L94.4359 92.3755C94.0864 91.6086 93.777 90.8308 93.4869 90.0396C93.1981 89.2484 92.9348 88.4463 92.6994 87.6297C92.3099 86.2682 91.9956 84.8703 91.8209 83.4153C91.3488 83.4481 90.8768 83.4712 90.4048 83.4882C90.4048 84.7574 90.4048 86.3191 90.4048 88.2413C90.4048 92.4143 96.9671 95.88 96.9671 95.88L96.4235 88.3614C96.4235 88.3614 98.132 92.1025 100.274 93.6363C103.272 95.7829 106.7 96.4855 106.7 96.4855C106.7 96.4855 105.927 94.5755 105.397 92.424C104.867 90.2714 104.124 87.7401 104.124 87.7401C104.124 87.7401 108.171 91.1899 109.753 92.0782C112.718 93.7419 119.766 93.379 119.766 93.379C119.766 93.379 117.761 91.1742 116.765 89.8782C116.272 89.2363 114.703 86.5436 114.703 86.5436C114.703 86.5436 120.545 87.8068 122.766 88.1502C127.177 88.8322 132.285 86.5436 132.285 86.5436C132.285 86.5436 127.194 83.7199 125.498 82.7795C124.015 81.9568 119.565 79.4898 119.565 79.4898C119.565 79.4898 126.776 80.7542 133.622 80.2531C141.843 79.6512 144.654 74.6603 144.654 74.6603C144.361 74.6603 141.213 73.9006 135.953 73.2357C132.481 72.7964 128.629 71.9421 128.629 71.9421C128.629 71.9421 137.623 71.8511 143.205 69.7082C149.038 67.4693 152.492 60.9385 152.492 60.9385C152.492 60.9385 145.173 62.266 142.729 62.6871C140.428 63.09 135.613 63.2962 135.613 63.2962Z" fill="#D1A773"/>
<path fill-rule="evenodd" clip-rule="evenodd" d="M97.7122 50.1533L95.6664 53.119H86.7099V51.1762H82.6351V33.2778L87.0751 29.2879L78.195 22.6406L69.3162 29.2879L73.7562 33.2778V51.1762H69.6802V53.119H60.725L58.6791 50.1533H55.5083V61.5064H58.167L60.2129 58.8477H68.8041V127.886L78.195 144.405L87.586 127.886V58.8477H96.1784L98.2231 61.5064H100.883V50.1533H97.7122ZM78.1951 26.7312V50.6641H81.0588V30.9758L82.5938 29.6968L78.1951 26.7312ZM99.0609 58.8477V53.3496L97.6132 55.1673L84.9459 56.098L97.4251 57.2108L99.0609 58.8477ZM57.5351 53.3496V58.8477L59.172 57.2108L71.65 56.098L58.9827 55.1673L57.5351 53.3496ZM84.9461 58.8477H70.8628L78.1957 64.7791V138.625L84.9461 126.761V58.8477Z" fill="#D1A773"/>
</svg>
