<svg width="28" height="17" viewBox="0 0 28 17" fill="none" xmlns="http://www.w3.org/2000/svg">
<path opacity="0.5" d="M27.1168 1.55735C27.271 0.940396 27.1168 0.42627 26.1913 0.42627H23.158C22.3868 0.42627 22.0269 0.837571 21.8213 1.30029C21.8213 1.30029 20.2789 5.05341 18.1195 7.52122C17.3998 8.18958 17.0913 8.44665 16.68 8.44665C16.5257 8.44665 16.2173 8.18958 16.2173 7.57263V1.55735C16.2173 0.786158 16.0116 0.42627 15.3433 0.42627H10.6133C10.0992 0.42627 9.8421 0.786158 9.8421 1.14605C9.8421 1.86582 10.9218 2.02006 11.0246 4.07657V8.54947C11.0246 9.52631 10.8704 9.73197 10.4591 9.73197C9.4308 9.73197 6.96299 5.92743 5.47202 1.60876C5.16355 0.786158 4.85507 0.42627 4.08388 0.42627H1.05053C0.227929 0.42627 0.0222778 0.837571 0.0222778 1.30029C0.0222778 2.12289 1.05053 6.08167 4.80366 11.3772C7.32288 14.9761 10.8704 16.8783 14.0579 16.8783C15.9602 16.8783 16.2173 16.467 16.2173 15.7472C16.2173 12.3026 16.063 11.9427 16.9885 11.9427C17.4512 11.9427 18.2224 12.1998 20.0218 13.9478C22.0783 16.0043 22.4382 16.8783 23.5693 16.8783H26.6026C27.4766 16.8783 27.888 16.467 27.6309 15.593C27.0653 13.845 23.2094 10.1433 23.0037 9.8862C22.541 9.32066 22.6953 9.0636 23.0037 8.54947C23.0037 8.54947 26.7055 3.30538 27.1168 1.55735Z" fill="#D1A773"/>
</svg>
