<svg width="28" height="19" viewBox="0 0 28 19" fill="none" xmlns="http://www.w3.org/2000/svg">
<path opacity="0.5" d="M26.4374 3.03745C26.1487 1.8858 25.2343 0.974085 24.1275 0.686174C22.0582 0.110352 13.8773 0.110352 13.8773 0.110352C13.8773 0.110352 5.64826 0.110352 3.57897 0.686174C2.47214 0.974085 1.5578 1.8858 1.26907 3.03745C0.691589 5.05282 0.691589 9.37149 0.691589 9.37149C0.691589 9.37149 0.691589 13.6422 1.26907 15.7055C1.5578 16.8572 2.47214 17.7209 3.57897 18.0088C5.64826 18.5367 13.8773 18.5367 13.8773 18.5367C13.8773 18.5367 22.0582 18.5367 24.1275 18.0088C25.2343 17.7209 26.1487 16.8572 26.4374 15.7055C27.0149 13.6422 27.0149 9.37149 27.0149 9.37149C27.0149 9.37149 27.0149 5.05282 26.4374 3.03745ZM11.1824 13.2583V5.48469L18.0159 9.37149L11.1824 13.2583Z" fill="#D1A773"/>
</svg>
