<svg width="626" height="413" viewBox="0 0 626 413" fill="none" xmlns="http://www.w3.org/2000/svg">
<path opacity="0.5" d="M624.999 385.373H597.903V412M624.999 27.6273H597.903V1M28.564 411.532V384.905H1.00008L1.00003 26.9936M27.6296 1V27.6273H1.00006M17.4975 14.9966L17.4975 394.903M624.898 26.9937L624.898 385.905M608.401 16.9961L608.401 395.902M608.901 395.504H17.9973M608.901 17.4961H17.9973M597.903 1.5H26.9957M597.903 411.399L27.9956 411.399M1.00006 1H17.8187V17.8173H1.00006V1ZM1.00008 395.182H17.8188V412H1.00008V395.182ZM608.181 1H625V17.8173H608.181V1ZM608.181 395.182H625V411.999H608.181V395.182Z" stroke="#D8A56A"/>
</svg>
