<svg width="262" height="58" viewBox="0 0 262 58" fill="none" xmlns="http://www.w3.org/2000/svg">
<path d="M261.531 50.9027H182.312C182.053 50.9027 181.844 51.1138 181.844 51.3752C181.844 51.6365 182.053 51.8477 182.312 51.8477H261.531C261.79 51.8477 262 51.6365 262 51.3752C262 51.1138 261.79 50.9027 261.531 50.9027Z" fill="#D1A773"/>
<path d="M246.465 57.0651H140.378L131.668 48.2889L147.831 32.0033H159.445L140.558 51.0334C140.428 51.1641 140.378 51.3752 140.458 51.5461C140.528 51.727 140.708 51.8376 140.897 51.8376H173.383C173.512 51.8376 173.632 51.7873 173.712 51.6969L179.219 46.1477H228.008C228.267 46.1477 228.477 45.9366 228.477 45.6752C228.477 45.4138 228.267 45.2027 228.008 45.2027H180.157L185.704 39.6133C185.834 39.4826 185.884 39.2715 185.804 39.1006C185.734 38.9197 185.555 38.8091 185.365 38.8091H163.116C162.987 38.8091 162.867 38.8594 162.787 38.9498L156.432 45.3535C156.302 45.4842 156.252 45.6953 156.332 45.8662C156.402 46.0472 156.581 46.1577 156.771 46.1577H177.882L173.173 50.9027H142.024L160.911 31.8726C161.041 31.7319 161.091 31.5308 161.011 31.3599C160.941 31.179 160.762 31.0684 160.572 31.0684H147.622C147.492 31.0684 147.372 31.1187 147.292 31.2091L131 47.6255L114.697 31.1991C114.607 31.1086 114.488 31.0583 114.368 31.0583H101.417C101.228 31.0583 101.058 31.1689 100.978 31.3499C100.909 31.5308 100.949 31.7319 101.078 31.8626L119.965 50.8926H88.8163L84.1071 46.1477H105.219C105.408 46.1477 105.578 46.0371 105.658 45.8562C105.728 45.6752 105.688 45.4741 105.558 45.3434L99.2025 38.9398C99.1127 38.8493 98.993 38.799 98.8733 38.799H76.6242C76.4346 38.799 76.265 38.9197 76.1852 39.0906C76.1154 39.2715 76.1553 39.4726 76.285 39.6033L81.8323 45.1927H33.9818C33.7224 45.1927 33.5129 45.4038 33.5129 45.6651C33.5129 45.9265 33.7224 46.1376 33.9818 46.1376H82.7701L88.2775 51.6868C88.3673 51.7773 88.4871 51.8276 88.6068 51.8276H121.092C121.282 51.8276 121.452 51.717 121.531 51.536C121.601 51.3551 121.561 51.154 121.432 51.0233L102.545 31.9932H114.158L130.321 48.2789L121.611 57.055H15.5341C15.2746 57.055 15.0651 57.2661 15.0651 57.5275C15.0651 57.7889 15.2746 58 15.5341 58H121.821C121.881 58 121.94 57.99 122 57.9598C122.06 57.9397 122.11 57.8995 122.15 57.8593L131 48.9424L139.849 57.8593C139.889 57.8995 139.949 57.9397 139.999 57.9598C140.059 57.9799 140.119 58 140.179 58H246.465C246.725 58 246.934 57.7889 246.934 57.5275C246.934 57.2762 246.725 57.0651 246.465 57.0651ZM157.908 45.2128L163.326 39.7541H184.238L178.82 45.2128H157.908ZM77.7616 39.7541H98.6737L104.091 45.2128H83.1792L77.7616 39.7541Z" fill="#D1A773"/>
<path d="M80.1565 51.3752C80.1565 51.1138 79.947 50.9027 79.6876 50.9027H0.468928C0.209522 50.9027 0 51.1138 0 51.3752C0 51.6365 0.209522 51.8477 0.468928 51.8477H79.6876C79.947 51.8477 80.1565 51.6365 80.1565 51.3752Z" fill="#D1A773"/>
<path d="M130.67 38.7488C130.76 38.8392 130.88 38.8895 131 38.8895C131.119 38.8895 131.239 38.8392 131.329 38.7488L145.307 24.6647C145.397 24.5742 145.447 24.4536 145.447 24.333C145.447 24.2023 145.397 24.0816 145.307 24.0012L136.766 15.396L141.286 10.842C141.466 10.6611 141.466 10.3595 141.286 10.1685L131.329 0.135714C131.149 -0.0452379 130.85 -0.0452379 130.66 0.135714L120.703 10.1685C120.613 10.259 120.563 10.3796 120.563 10.5002C120.563 10.6309 120.613 10.7516 120.703 10.832L125.223 15.3859L116.682 23.9912C116.503 24.1721 116.503 24.4737 116.682 24.6647L130.67 38.7488ZM121.701 10.5002L131 1.13095L140.298 10.5002L136.108 14.7224L131.329 9.9071C131.149 9.72615 130.84 9.72615 130.66 9.9071L125.881 14.7224L121.701 10.5002ZM135.439 15.3859L131 19.8594L126.56 15.3859L131 10.9124L135.439 15.3859ZM125.891 16.0595L130.67 20.8748C130.76 20.9653 130.88 21.0155 131 21.0155C131.119 21.0155 131.249 20.9653 131.329 20.8748L136.108 16.0595L144.319 24.333L131 37.7435L117.68 24.333L125.891 16.0595Z" fill="#D1A773"/>
</svg>
