<svg width="166" height="170" viewBox="0 0 166 170" fill="none" xmlns="http://www.w3.org/2000/svg">
<g filter="url(#filter0_d_1_1570)">
<path d="M57.766 119.505H50.366V50.0928H57.766V119.505ZM68.348 119.505H60.948V50.0928H68.348V119.505ZM73.676 119.505H69.384V50.0928H73.676V119.505ZM79.004 119.505H74.638V50.0928H79.004V119.505ZM84.332 119.505H80.04V50.0928H84.332V119.505ZM89.512 50.0928C88.9693 50.0928 88.4513 50.1174 87.958 50.1668C87.4646 50.1668 86.9466 50.1914 86.404 50.2408V57.4188C86.9466 57.3201 87.4646 57.2461 87.958 57.1968C88.4513 57.1474 88.9693 57.1228 89.512 57.1228C92.1266 57.1228 94.5933 57.6408 96.912 58.6768C99.2306 59.6634 101.253 61.0201 102.98 62.7468C104.707 64.4734 106.063 66.4961 107.05 68.8148C108.086 71.1334 108.604 73.6248 108.604 76.2888C108.604 78.9034 108.086 81.3701 107.05 83.6888C106.063 86.0074 104.707 88.0301 102.98 89.7568C101.253 91.4834 99.2306 92.8648 96.912 93.9008C94.5933 94.8874 92.1266 95.3808 89.512 95.3808C88.9693 95.3808 88.4513 95.3561 87.958 95.3068C87.4646 95.2574 86.9466 95.1834 86.404 95.0848V102.263C86.9466 102.312 87.4646 102.361 87.958 102.411C88.4513 102.411 88.9693 102.411 89.512 102.411C93.1133 102.411 96.4926 101.745 99.65 100.413C102.857 99.0314 105.644 97.1568 108.012 94.7888C110.38 92.4208 112.23 89.6581 113.562 86.5008C114.943 83.2941 115.634 79.8901 115.634 76.2888C115.634 72.6874 114.943 69.3081 113.562 66.1508C112.23 62.9441 110.38 60.1568 108.012 57.7888C105.644 55.4208 102.857 53.5461 99.65 52.1648C96.4926 50.7834 93.1133 50.0928 89.512 50.0928Z" fill="#EFC18E"/>
</g>
<defs>
<filter id="filter0_d_1_1570" x="0.365967" y="0.0927734" width="165.268" height="169.412" filterUnits="userSpaceOnUse" color-interpolation-filters="sRGB">
<feFlood flood-opacity="0" result="BackgroundImageFix"/>
<feColorMatrix in="SourceAlpha" type="matrix" values="0 0 0 0 0 0 0 0 0 0 0 0 0 0 0 0 0 0 127 0" result="hardAlpha"/>
<feOffset/>
<feGaussianBlur stdDeviation="25"/>
<feComposite in2="hardAlpha" operator="out"/>
<feColorMatrix type="matrix" values="0 0 0 0 0.937255 0 0 0 0 0.756863 0 0 0 0 0.556863 0 0 0 0.5 0"/>
<feBlend mode="normal" in2="BackgroundImageFix" result="effect1_dropShadow_1_1570"/>
<feBlend mode="normal" in="SourceGraphic" in2="effect1_dropShadow_1_1570" result="shape"/>
</filter>
</defs>
</svg>
