<svg width="166" height="171" viewBox="0 0 166 171" fill="none" xmlns="http://www.w3.org/2000/svg">
<g filter="url(#filter0_d_1_1582)">
<path d="M57.47 120.076H50.07V50.6641H57.47V120.076ZM68.126 120.076H60.726V50.6641H68.126V120.076ZM73.454 120.076H69.088V50.6641H73.454V120.076ZM78.782 120.076H74.416V50.6641H78.782V120.076ZM84.036 120.076H79.818V50.6641H84.036V120.076ZM115.93 76.8601C115.93 73.2587 115.215 69.8794 113.784 66.7221C112.403 63.5154 110.503 60.7281 108.086 58.3601C105.718 55.9921 102.906 54.1174 99.65 52.7361C96.4433 51.3547 92.99 50.6641 89.29 50.6641C88.7473 50.6641 88.2293 50.6887 87.736 50.7381C87.2427 50.7381 86.7247 50.7627 86.182 50.8121V57.9901C86.7247 57.8914 87.2427 57.8174 87.736 57.7681C88.2293 57.7187 88.7473 57.6941 89.29 57.6941C91.954 57.6941 94.47 58.2121 96.838 59.2481C99.206 60.2347 101.253 61.5914 102.98 63.3181C104.756 65.0447 106.137 67.0674 107.124 69.3861C108.16 71.7047 108.678 74.1961 108.678 76.8601C108.678 79.4747 108.16 81.9414 107.124 84.2601C106.137 86.5294 104.756 88.5274 102.98 90.2541C101.253 91.9314 99.206 93.2634 96.838 94.2501C94.47 95.2367 91.954 95.7301 89.29 95.7301H85.96V101.872L104.904 120.076H114.598L96.69 101.946C99.4527 101.157 102.018 99.9727 104.386 98.3941C106.754 96.8154 108.777 94.9407 110.454 92.7701C112.181 90.5501 113.513 88.0834 114.45 85.3701C115.437 82.6567 115.93 79.8201 115.93 76.8601Z" fill="#EFC18E"/>
</g>
<defs>
<filter id="filter0_d_1_1582" x="0.0700073" y="0.664062" width="165.86" height="169.412" filterUnits="userSpaceOnUse" color-interpolation-filters="sRGB">
<feFlood flood-opacity="0" result="BackgroundImageFix"/>
<feColorMatrix in="SourceAlpha" type="matrix" values="0 0 0 0 0 0 0 0 0 0 0 0 0 0 0 0 0 0 127 0" result="hardAlpha"/>
<feOffset/>
<feGaussianBlur stdDeviation="25"/>
<feComposite in2="hardAlpha" operator="out"/>
<feColorMatrix type="matrix" values="0 0 0 0 0.937255 0 0 0 0 0.756863 0 0 0 0 0.556863 0 0 0 0.5 0"/>
<feBlend mode="normal" in2="BackgroundImageFix" result="effect1_dropShadow_1_1582"/>
<feBlend mode="normal" in="SourceGraphic" in2="effect1_dropShadow_1_1582" result="shape"/>
</filter>
</defs>
</svg>
