<svg width="168" height="170" viewBox="0 0 168 170" fill="none" xmlns="http://www.w3.org/2000/svg">
<g filter="url(#filter0_d_1_1594)">
<path d="M74.084 87.9068V119.505H66.684V89.3868L50.182 50.0928H58.174L74.084 87.9068ZM97.912 72.5888L109.826 50.0928H117.818L101.39 81.0248L97.912 72.5888ZM75.86 50.0928L89.92 83.9848V119.505H85.48V84.7248L71.124 50.0928H75.86ZM81.484 50.0928L95.1 83.0228V119.505H90.956V83.8368L77.044 50.0928H81.484ZM70.014 50.0928L84.37 84.8728V119.505H77.34L77.488 86.7228L62.17 50.0928H70.014ZM100.576 81.7648V119.505H96.136V82.8008L82.594 50.0928H87.478L100.576 81.7648Z" fill="#EFC18E"/>
</g>
<defs>
<filter id="filter0_d_1_1594" x="0.181999" y="0.0927734" width="167.636" height="169.412" filterUnits="userSpaceOnUse" color-interpolation-filters="sRGB">
<feFlood flood-opacity="0" result="BackgroundImageFix"/>
<feColorMatrix in="SourceAlpha" type="matrix" values="0 0 0 0 0 0 0 0 0 0 0 0 0 0 0 0 0 0 127 0" result="hardAlpha"/>
<feOffset/>
<feGaussianBlur stdDeviation="25"/>
<feComposite in2="hardAlpha" operator="out"/>
<feColorMatrix type="matrix" values="0 0 0 0 0.937255 0 0 0 0 0.756863 0 0 0 0 0.556863 0 0 0 0.5 0"/>
<feBlend mode="normal" in2="BackgroundImageFix" result="effect1_dropShadow_1_1594"/>
<feBlend mode="normal" in="SourceGraphic" in2="effect1_dropShadow_1_1594" result="shape"/>
</filter>
</defs>
</svg>
